<svg version="1.1" id="Layer_1" xmlns="http://www.w3.org/2000/svg" xmlns:xlink="http://www.w3.org/1999/xlink" x="0px" y="0px"
	 width="100%" viewBox="0 0 1000 667" enable-background="new 0 0 1000 667" xml:space="preserve">
<path fill="#FFFFFF" opacity="1.000000" stroke="none" 
	d="
M609.000000,668.000000 
	C407.500061,668.000000 206.500122,667.987793 5.500229,668.093567 
	C1.751380,668.095520 0.904688,667.249817 0.906478,663.500122 
	C1.011185,444.166901 1.011159,224.833649 0.906582,5.500423 
	C0.904795,1.752099 1.749575,0.905682 5.499647,0.906824 
	C335.832855,1.007437 666.166077,1.007417 996.499329,0.907017 
	C1000.246765,0.905878 1001.095398,1.748434 1001.093628,5.499365 
	C1000.988831,224.832596 1000.988831,444.165863 1001.093323,663.499084 
	C1001.095093,667.246277 1000.252441,668.097717 996.500793,668.094421 
	C867.500549,667.981018 738.500305,668.000000 609.000000,668.000000 
z"/>
<path fill="#FEC629" opacity="1.000000" stroke="none" 
	d="
M743.792969,161.196442 
	C753.072998,166.763733 762.119629,172.497589 770.988831,178.493896 
	C784.264832,187.469513 796.969971,197.188278 809.196899,207.579117 
	C821.207520,217.786209 833.177368,228.088608 843.909790,239.571732 
	C857.112793,253.698410 869.890015,268.224579 881.569153,283.749237 
	C896.615356,303.749481 909.955811,324.726685 921.963989,346.641113 
	C939.507263,378.656799 952.645874,412.359039 962.149780,447.591309 
	C965.917847,461.559753 969.479614,475.582001 971.754150,489.815094 
	C973.556152,501.091583 975.456970,512.392578 976.183411,523.885376 
	C977.117615,538.665771 978.901001,553.384277 979.128052,568.231445 
	C979.200073,572.941345 977.721191,574.124329 973.151123,574.114258 
	C911.344055,573.977600 849.536499,574.025146 787.250916,573.955078 
	C785.379822,571.616577 786.679626,569.661438 787.659973,567.808777 
	C793.520691,556.733521 796.856140,544.866089 797.408508,532.453186 
	C798.104309,516.818298 794.158875,502.439697 783.033813,490.271545 
	C780.079102,486.326691 776.457703,483.673401 772.850220,481.011871 
	C768.541382,477.832855 768.292480,476.293243 771.776001,472.146484 
	C776.267395,466.800018 780.565186,461.280579 785.249512,456.111481 
	C788.373413,452.664307 788.622070,449.945251 785.534302,446.217957 
	C781.192383,440.976562 777.140869,435.474243 773.027527,430.036285 
	C771.731628,428.323151 770.229431,426.719604 769.528259,424.242218 
	C771.688538,416.179962 776.083313,409.448547 779.144531,402.121002 
	C781.461060,396.575928 781.703674,396.676788 775.743591,396.172302 
	C775.079468,396.116089 774.432800,395.984833 773.500854,395.575684 
	C772.117859,392.997620 774.465271,392.751862 775.543884,391.807617 
	C778.516113,389.205780 781.935730,387.128052 784.115417,383.641876 
	C786.157715,380.375305 785.900574,377.352142 783.600098,374.467163 
	C781.302063,371.585205 778.271362,370.653992 774.725037,371.742371 
	C771.601135,372.701050 769.323425,374.794250 767.289062,377.290253 
	C763.940308,381.398712 761.489746,386.138550 757.748474,390.344757 
	C757.190674,390.530884 756.954590,390.561035 756.367798,390.525665 
	C751.985779,386.546906 748.475342,382.105255 744.156921,378.492981 
	C738.633118,373.872467 734.687866,374.549835 730.440369,380.870850 
	C729.974792,381.217041 729.749695,381.297607 729.169678,381.326050 
	C725.781433,378.908508 725.192932,375.057770 723.248779,372.021881 
	C721.812744,369.779266 720.415344,367.568268 718.476257,365.719666 
	C716.263550,363.610168 713.686218,362.193420 710.938477,364.145782 
	C708.319336,366.006805 709.043640,369.001709 710.097473,371.438293 
	C712.623352,377.278625 716.679199,382.090240 720.934570,386.762512 
	C723.219177,389.270905 726.578552,390.979980 727.048767,395.073730 
	C724.728027,396.679840 722.351196,396.314606 720.081787,396.241821 
	C716.572693,396.129242 715.623413,397.334991 717.022461,400.664215 
	C719.710754,407.060852 723.216370,413.075958 725.711304,419.558289 
	C726.125916,420.635498 726.660400,421.666443 726.944214,423.167419 
	C727.090576,426.297363 725.137878,428.057007 723.713928,430.049774 
	C719.564453,435.856812 715.086670,441.418427 710.675842,447.023590 
	C708.440308,449.864319 708.341309,452.183441 710.687561,454.941864 
	C715.092590,460.120789 719.359680,465.418427 723.777649,470.587402 
	C728.991211,476.687164 728.904602,477.523407 722.580566,482.109467 
	C719.631836,484.247833 716.552063,486.252441 714.009949,489.425690 
	C706.516846,497.450684 702.615234,506.889679 699.888550,517.324341 
	C699.951111,518.189758 698.125732,518.031616 699.474609,519.228882 
	C700.068176,521.247253 699.561584,522.672852 698.054993,524.109192 
	C697.423462,524.252014 697.153076,524.202332 696.617371,523.833496 
	C694.686462,518.224670 694.704346,512.681885 693.980530,507.256165 
	C691.704407,490.193817 687.558899,473.588776 682.108765,457.292511 
	C680.859009,453.555603 680.257812,449.941406 681.844360,446.116882 
	C695.276978,413.735565 703.024658,379.928284 707.188354,344.828308 
	C710.586670,342.077728 711.281677,345.263306 712.332092,346.951752 
	C716.972778,354.410706 721.540283,361.910187 727.538330,369.013763 
	C726.415283,359.428284 724.689453,350.393250 722.196594,341.475616 
	C720.285339,334.638641 716.624878,329.650085 709.278564,327.435242 
	C708.028687,320.335510 708.389832,313.578522 708.966370,306.427307 
	C712.719971,303.079102 712.856873,307.151703 713.516418,308.603577 
	C716.397156,314.945709 719.373108,321.223114 722.960083,327.200134 
	C723.198547,327.597473 723.367554,328.046448 723.639771,328.244324 
	C723.959412,318.718811 723.520569,309.152435 721.700073,299.663635 
	C720.712769,294.517365 718.889343,289.808044 715.475342,285.308411 
	C714.519409,282.020874 715.204224,279.452423 717.541016,276.997253 
	C720.503418,277.079498 720.613647,279.411835 721.264893,281.159027 
	C722.999329,285.812286 724.238037,290.648193 726.408569,295.189453 
	C729.132385,285.646515 730.326782,260.523865 725.272705,253.092072 
	C725.225830,246.914658 727.526123,241.663528 729.423584,236.380371 
	C734.557556,222.086441 739.420227,207.722595 741.722900,192.659531 
	C743.028625,184.118195 744.562012,175.543564 742.796936,166.836533 
	C742.434814,165.050049 742.526611,163.172531 743.792969,161.196442 
z"/>
<path fill="#FFC629" opacity="1.000000" stroke="none" 
	d="
M230.342621,573.857422 
	C163.264099,574.060852 96.627899,574.039917 29.991686,574.018860 
	C22.989210,574.016663 23.142509,574.012573 22.963804,566.866150 
	C22.616034,552.958801 23.752096,539.086548 25.154343,525.328857 
	C27.120615,506.037506 30.075623,486.828827 34.444012,467.868195 
	C39.995007,443.774506 46.918362,420.097992 56.104836,397.158600 
	C64.731102,375.618103 75.103546,354.907410 86.524216,334.664734 
	C97.433365,315.328674 109.977188,297.146698 123.289383,279.486694 
	C130.580994,269.813599 138.914780,260.925598 146.787949,251.691544 
	C153.144531,244.236237 159.890839,237.137695 167.008621,230.417694 
	C183.358871,214.981094 200.267670,200.195312 218.950592,187.145416 
	C220.274109,188.893799 219.566055,190.430725 218.704422,191.854218 
	C210.893005,204.759567 209.681870,218.577438 212.914520,233.030380 
	C213.168045,234.163879 213.228088,235.324142 213.110657,236.915344 
	C208.695679,254.099045 206.479263,271.145020 205.307602,288.419098 
	C204.406570,301.703003 204.062592,314.906036 205.455780,328.150574 
	C206.122940,334.492889 207.443344,340.589355 211.386047,346.292938 
	C212.236649,348.050812 212.313431,349.544617 212.391327,351.043793 
	C212.749496,357.937439 212.753876,357.937225 219.563324,359.361206 
	C221.994263,361.888611 220.972412,364.458649 220.426132,366.942963 
	C219.834656,369.632782 219.296799,372.333710 218.593826,375.425293 
	C218.431839,376.098877 218.371719,376.368347 218.215942,377.038788 
	C212.759140,395.344940 213.504547,413.127960 219.242142,430.793701 
	C221.354294,437.296936 225.516296,442.429993 230.661285,447.393005 
	C231.945053,449.343201 232.308304,451.021820 231.138000,453.155884 
	C226.850555,455.303314 222.624573,454.233215 218.516220,454.519379 
	C213.672516,454.856842 212.653305,455.647278 212.579742,460.547211 
	C212.412430,471.693237 212.514603,482.842072 212.529938,493.989838 
	C212.535110,497.752106 214.346848,499.312469 218.024460,499.488098 
	C222.303482,499.692505 226.695435,498.693085 231.191803,500.831879 
	C232.530045,502.795837 232.571182,504.634369 232.575439,506.455780 
	C232.623047,526.843933 232.645004,547.232117 232.559830,567.620178 
	C232.550873,569.764038 232.544556,571.974976 230.342621,573.857422 
z"/>
<path fill="#41B4E5" opacity="1.000000" stroke="none" 
	d="
M380.821289,110.342941 
	C381.703278,91.407211 384.041107,73.012169 383.944031,54.486866 
	C383.928528,51.528130 385.564575,50.812069 388.492615,50.980782 
	C390.304047,50.260696 391.807312,50.343224 393.309784,50.347569 
	C444.292053,50.495026 495.274414,50.366131 546.256714,50.418491 
	C556.056641,50.428558 557.508606,51.872173 556.258972,61.486809 
	C555.052979,70.765938 555.279419,80.114792 554.869690,89.404945 
	C554.085144,107.191925 553.307800,124.993370 552.395142,142.768982 
	C551.149475,167.030365 550.181580,191.307434 548.853516,215.566559 
	C547.898804,233.005661 546.901062,250.463730 546.613037,267.938965 
	C546.544067,272.124634 545.834717,276.226929 545.433960,280.805115 
	C545.237671,282.212585 545.166687,283.388733 544.428406,283.957703 
	C539.471130,287.777954 541.326233,291.231964 544.972046,295.074219 
	C544.356567,311.390961 543.969971,327.309326 542.806274,343.194122 
	C542.224609,351.133911 542.040771,359.113617 541.772766,367.056580 
	C541.442383,376.844025 540.324585,386.593384 540.414307,396.875977 
	C540.383728,400.970032 538.234375,402.314270 534.968018,402.503235 
	C533.802673,402.570679 532.637634,402.608154 531.471375,402.608337 
	C481.982758,402.617157 432.494110,402.621429 383.005493,402.606232 
	C381.505676,402.605774 380.005890,402.583008 378.062988,402.318542 
	C376.082275,401.876526 374.733398,401.035583 374.281891,399.583832 
	C372.209778,392.921295 367.643799,387.567902 364.787720,380.874115 
	C364.303955,375.043854 364.579803,369.682037 366.058167,364.014923 
	C366.961731,362.215576 368.302185,361.993011 369.641541,362.230042 
	C384.009705,364.773010 392.815979,356.417358 400.521820,346.268158 
	C407.128967,337.566010 411.075073,327.471191 414.728699,317.273285 
	C415.560699,314.951019 416.042572,312.389130 418.995361,310.990570 
	C422.032837,310.270569 424.704956,310.435791 427.362823,310.434448 
	C454.659424,310.420502 481.955994,310.434448 509.252594,310.421234 
	C516.798340,310.417572 516.798340,310.392090 517.649780,302.944977 
	C518.949707,291.575317 518.949707,291.574341 507.712494,291.573914 
	C484.410522,291.572998 461.108551,291.577545 437.806580,291.568298 
	C435.312439,291.567291 432.811432,291.681946 429.905823,291.194672 
	C427.892212,290.567627 427.402008,289.597595 428.220245,288.059937 
	C428.851654,286.873474 429.739166,285.880859 430.627197,284.900726 
	C434.516052,280.608368 435.253937,275.959106 432.619446,270.697418 
	C431.427368,268.316528 430.103485,265.570862 434.691650,264.466370 
	C460.749420,264.409027 486.378571,264.479095 512.007690,264.451050 
	C520.966736,264.441254 521.417908,264.019348 521.443665,255.264008 
	C521.474915,244.631271 521.828796,245.582199 511.643433,245.552292 
	C474.864014,245.444336 438.083618,245.770523 401.305573,245.341644 
	C398.151428,245.304871 396.584625,246.193359 396.588226,249.430618 
	C396.591553,252.432083 396.076294,255.394638 395.803009,258.375488 
	C395.346680,263.352814 396.136169,264.182709 401.152466,264.438599 
	C402.647339,264.514832 404.148743,264.468658 406.048767,264.798706 
	C409.746429,266.231476 407.829041,268.136566 406.781952,269.598572 
	C402.886078,275.038177 399.812439,280.926880 396.698425,287.259186 
	C388.791870,296.419708 383.447662,306.680084 378.368500,317.114044 
	C377.461029,318.978210 376.728180,322.044617 374.504608,321.712799 
	C371.938965,321.329895 372.019012,318.082703 371.898468,315.910889 
	C371.503723,308.798096 369.536102,301.865692 369.597656,294.280823 
	C370.153656,278.907593 371.287537,264.001221 372.153198,249.079422 
	C372.913361,235.976837 373.635803,222.871582 374.451172,209.771713 
	C375.359283,195.181442 376.256805,180.590088 377.142853,165.998993 
	C377.928345,153.064285 378.690338,140.125748 379.368225,127.185432 
	C379.655609,121.698921 380.167175,116.252716 380.821289,110.342941 
z"/>
<path fill="#FFC629" opacity="1.000000" stroke="none" 
	d="
M375.896515,401.347626 
	C428.699402,401.016907 481.215332,400.997040 533.731262,400.950745 
	C536.182129,400.948608 539.504700,402.002930 538.964478,396.982635 
	C541.744812,395.162689 542.423157,392.725220 542.445618,389.890717 
	C542.584961,372.285187 543.961426,354.727631 544.622620,337.141174 
	C545.145996,323.218140 546.065247,309.297668 546.826050,294.936035 
	C550.016113,291.275818 551.586792,291.382599 553.393494,295.125916 
	C554.542358,297.506378 555.437622,300.007446 557.050415,302.145752 
	C560.119263,306.214600 564.403992,307.437012 569.258850,307.583191 
	C575.858459,307.781921 582.483215,307.002502 589.435303,308.256287 
	C591.793640,311.406982 594.730103,312.461456 598.138489,312.581970 
	C600.906860,312.679840 603.622253,313.143860 606.693970,313.932404 
	C607.321716,314.188538 607.562439,314.318604 608.095947,314.739563 
	C609.661316,318.066010 607.832764,320.552979 606.812012,323.099487 
	C596.389709,349.100525 587.230164,375.499115 579.916199,402.576538 
	C571.245483,434.676727 569.994080,466.926422 575.845337,499.571472 
	C579.679199,520.961182 585.778259,541.709290 593.135498,562.119141 
	C594.250061,565.210999 595.506653,568.050720 599.742554,568.528320 
	C600.694519,569.440308 600.832275,570.251526 600.545410,571.525330 
	C597.804443,573.852600 594.646179,573.738342 591.297607,574.195923 
	C509.625854,574.040222 428.344696,574.032532 346.604187,574.038818 
	C343.433289,572.885559 343.501343,570.374023 343.496918,568.096130 
	C343.466431,552.449036 343.181732,536.800476 343.693756,520.701233 
	C346.935577,513.854614 347.850037,506.530975 352.269470,500.286438 
	C353.446869,499.807007 354.259003,499.608643 355.086304,499.605042 
	C362.918823,499.571198 363.475708,499.816223 363.504089,490.223083 
	C363.538300,478.646881 363.223297,467.068115 363.769989,455.067322 
	C364.199585,453.306488 365.017395,452.274689 366.001343,451.362183 
	C373.715973,444.207642 376.186279,434.933136 376.587891,424.880310 
	C376.897980,417.118347 376.537933,409.370361 375.896515,401.347626 
z"/>
<path fill="#13A67C" opacity="1.000000" stroke="none" 
	d="
M609.022644,315.100952 
	C608.361206,314.915649 608.109863,314.894745 607.487915,314.797455 
	C605.192932,312.886810 605.525269,310.463989 605.508667,308.185608 
	C605.442261,299.074341 605.519653,289.962311 605.459656,280.850983 
	C605.443542,278.408600 605.782654,275.760590 602.710388,274.026367 
	C600.709473,272.335327 601.056213,270.473572 601.388367,268.681183 
	C605.899658,244.342117 610.123840,219.949738 614.931335,195.665573 
	C615.106140,194.782547 615.349487,193.934067 615.784363,193.132797 
	C606.364502,219.126572 599.462585,245.774612 594.780212,273.430084 
	C593.831238,275.083649 592.624634,275.837463 590.941589,276.649323 
	C581.888245,275.886993 573.368835,273.653290 564.161804,274.229858 
	C561.042969,273.661499 559.637451,271.555969 558.098938,269.589417 
	C554.496338,264.984650 551.821838,259.825714 549.005127,254.270203 
	C549.122009,241.495590 549.056702,229.112869 550.851929,216.404327 
	C551.558960,214.125931 552.985291,212.991882 554.671448,212.322098 
	C559.521179,210.395630 564.010742,207.652069 569.392944,206.022705 
	C573.175903,206.166672 575.042358,208.646652 576.950195,210.919525 
	C581.020142,215.768143 584.863281,220.791672 588.055237,227.255096 
	C589.887085,218.249756 592.293762,210.102646 594.696350,201.955200 
	C597.475464,192.531082 600.547302,183.210052 604.550293,174.215790 
	C609.449707,163.207428 617.433655,154.881119 627.326599,148.333481 
	C631.899475,145.306870 634.817200,141.479919 635.978516,136.089828 
	C636.854004,132.026337 638.066040,127.953796 640.810120,124.688583 
	C643.727478,121.217201 647.177856,118.763649 652.346802,121.004814 
	C653.392029,122.842247 653.334167,124.487526 653.199463,126.548080 
	C645.400024,168.332153 638.342712,209.822372 631.657288,252.446472 
	C640.010681,247.103851 647.288635,242.164566 654.591431,237.272507 
	C657.006042,235.654938 657.274841,232.816711 657.733398,230.167786 
	C662.932922,200.132019 668.075073,170.085815 674.581360,140.293930 
	C675.471802,136.216965 676.686707,132.237961 677.848877,127.819550 
	C679.919739,121.402550 682.819824,116.467598 690.682373,116.932281 
	C693.521973,117.406258 696.058167,118.255798 697.470459,120.099068 
	C703.703369,128.234238 712.605042,132.148285 721.610718,135.894943 
	C732.849182,140.570541 739.275574,149.512070 743.949463,160.580582 
	C743.955994,161.383148 743.617920,161.881943 743.683289,162.320602 
	C747.366516,187.036041 740.115906,209.956375 732.220093,232.789764 
	C730.001526,239.205383 728.054443,245.714859 725.975708,252.571045 
	C724.741943,261.089966 721.897583,268.707825 718.283325,276.366089 
	C717.170288,279.103302 716.400513,281.665344 715.682129,284.633728 
	C715.010193,290.902100 713.299744,296.423096 709.707031,301.629578 
	C705.581604,302.925903 701.730530,302.409485 697.923279,302.432220 
	C686.109314,302.502686 674.294434,302.503906 662.480591,302.432617 
	C658.420349,302.408112 654.603882,303.149384 650.802917,304.600647 
	C639.281372,308.999969 627.463623,312.432495 615.370178,314.888611 
	C613.408691,315.286987 611.443481,315.638672 609.022644,315.100952 
z"/>
<path fill="#010000" opacity="1.000000" stroke="none" 
	d="
M212.510437,237.059860 
	C207.409256,219.327591 209.174484,202.987381 219.468231,187.546082 
	C219.309982,187.188904 219.236206,187.126801 219.188110,187.130371 
	C219.266602,186.838837 219.433197,186.568390 219.750458,186.110992 
	C225.673019,179.204010 232.131378,173.257721 240.208496,169.415558 
	C242.350555,168.396652 243.218674,167.237091 243.017502,164.950119 
	C242.296432,156.752563 246.428757,150.693802 252.573318,146.266617 
	C254.996780,144.520508 255.604202,142.499710 255.750671,140.439728 
	C256.735992,126.580948 265.544373,119.231819 277.206665,114.402664 
	C287.110779,110.301544 297.293701,107.381287 308.277039,107.938522 
	C320.773682,108.572540 331.456329,112.986992 340.595154,122.005005 
	C345.799438,126.385239 349.007965,131.752274 351.079010,137.789154 
	C353.366943,144.458282 351.295380,148.899979 344.766144,151.839676 
	C343.405975,152.452087 341.997986,152.957535 340.263885,153.684448 
	C334.938049,155.023590 329.802551,155.096909 324.811432,156.150269 
	C320.845306,156.987289 318.405731,159.192780 317.563141,163.221832 
	C316.922333,166.285980 315.870544,169.233948 314.392303,172.416580 
	C313.726410,174.136581 312.823578,175.304276 311.972656,176.904724 
	C310.471710,179.452728 309.197784,181.761475 307.398956,183.644424 
	C305.253204,185.890472 305.178223,188.191986 306.739746,191.083420 
	C307.192749,192.619339 307.228271,193.850021 307.266418,195.457855 
	C307.249146,196.593796 307.142578,197.341827 306.902283,198.450729 
	C305.034302,204.713318 301.268646,209.265717 296.736877,213.754044 
	C295.727631,215.506027 295.969360,216.981384 296.414734,218.436386 
	C298.377441,224.848465 296.877075,230.655487 293.116089,235.927673 
	C291.412323,238.316055 291.208313,240.646515 291.693481,243.444931 
	C295.075836,262.953613 286.505829,276.306366 267.375519,281.251984 
	C254.456619,284.591827 241.987823,282.758270 229.564819,277.224426 
	C228.286179,276.512695 227.502640,275.783203 226.262695,275.016418 
	C219.166840,269.227203 215.341232,262.226929 215.712692,253.295227 
	C215.861694,249.712296 214.794739,246.471085 213.546936,243.215973 
	C212.841782,241.376480 212.081375,239.510162 212.510437,237.059860 
z"/>
<path fill="#0975E0" opacity="1.000000" stroke="none" 
	d="
M698.865356,518.951538 
	C700.671814,507.496338 705.044556,497.691437 712.848083,489.202454 
	C715.132812,487.553406 717.443420,487.390350 719.802856,487.388336 
	C738.781555,487.372131 757.760315,487.369110 776.739014,487.394958 
	C778.735901,487.397675 780.751038,487.374329 783.014160,488.653931 
	C795.890198,501.658600 799.551270,517.358398 798.467041,534.547241 
	C797.662354,547.303162 793.850525,559.208252 787.713745,570.395996 
	C787.253418,571.235229 787.043274,572.211609 786.744751,573.503662 
	C785.735046,575.523132 784.697388,577.163208 783.360718,578.960938 
	C778.767639,579.950623 774.425598,579.570557 770.104797,579.580872 
	C753.776733,579.619934 737.448486,579.601501 721.120300,579.593567 
	C718.621765,579.592346 716.104736,579.698730 713.334351,578.305786 
	C711.949097,576.977661 711.013977,575.841309 709.945190,574.401489 
	C703.598694,563.445679 699.220032,552.145386 697.686768,539.435547 
	C698.248657,534.348511 695.305786,529.672180 697.878418,524.678467 
	C698.378723,522.717834 698.613220,521.054626 698.865356,518.951538 
z"/>
<path fill="#FEC629" opacity="1.000000" stroke="none" 
	d="
M652.337463,120.887909 
	C646.763916,120.066444 643.263611,122.720810 640.627808,127.037788 
	C640.025696,128.023941 639.292786,129.075073 639.140686,130.168701 
	C637.599487,141.250351 630.715149,147.991394 621.824890,154.097672 
	C611.509583,161.182739 606.148071,172.293686 601.923523,183.873642 
	C596.514465,198.700394 592.453186,213.907562 588.623413,230.021408 
	C583.149231,221.343460 578.456421,212.756760 570.280640,206.540970 
	C566.659241,203.982574 566.153015,199.882141 563.891235,196.430420 
	C561.794067,188.061005 557.756653,181.053726 552.955688,173.949173 
	C551.788574,162.391190 553.497498,151.306183 553.816650,140.193649 
	C554.145081,128.754852 554.743896,117.296165 555.460327,105.858742 
	C555.623779,103.250427 555.075012,100.463524 557.720337,98.166389 
	C584.462341,101.669258 610.505798,106.652275 636.467224,113.946983 
	C641.611511,113.579704 645.802612,115.530487 650.036316,117.208733 
	C651.404358,117.751015 652.606689,118.720131 652.337463,120.887909 
z"/>
<path fill="#FDC52A" opacity="1.000000" stroke="none" 
	d="
M339.286987,153.034515 
	C352.317871,147.716293 353.961212,142.796509 346.536774,130.973312 
	C344.789398,128.190674 342.801544,125.559052 340.913879,122.505028 
	C353.856201,117.682518 366.933319,113.612885 380.530090,109.919739 
	C382.481750,111.221779 381.826538,112.990875 381.729767,114.573662 
	C380.246613,138.829147 378.665924,163.078751 377.207886,187.335693 
	C375.070465,222.894241 373.012878,258.457581 370.827148,294.463684 
	C368.239838,294.302368 368.811737,292.048065 368.516785,290.436554 
	C366.537079,279.621246 364.468964,268.828613 362.245819,258.056854 
	C358.668732,240.724899 348.132690,229.458740 332.530457,222.254547 
	C331.320587,221.695908 330.069275,221.227570 328.568909,220.389648 
	C328.038696,220.037094 327.835876,219.883377 327.357330,219.469940 
	C326.917480,219.021622 326.753296,218.833023 326.370300,218.343933 
	C324.138458,214.236938 321.160248,211.225815 318.123718,208.256241 
	C316.840454,207.001251 315.597534,205.696640 314.979340,203.532898 
	C315.264374,197.322937 317.338562,195.337494 322.942139,195.869003 
	C326.407990,196.197739 329.842163,196.890793 333.345520,196.567459 
	C338.121613,196.126663 340.315277,194.144333 340.547058,189.365616 
	C340.740570,185.375488 341.524780,181.802246 344.690735,179.109482 
	C346.728851,177.375977 346.338257,175.684738 344.609344,174.067322 
	C338.460663,168.315338 337.842377,161.124832 339.286987,153.034515 
z"/>
<path fill="#020100" opacity="1.000000" stroke="none" 
	d="
M281.486298,584.013306 
	C280.115814,579.556824 274.933197,578.357117 273.365540,574.000610 
	C266.049164,566.091675 261.547424,556.796631 257.426422,547.391968 
	C251.611572,534.121765 247.820679,520.186768 245.391602,505.893738 
	C245.056610,503.922516 244.514984,501.938416 246.784836,500.175537 
	C249.280502,499.308533 251.447235,499.405975 253.596878,499.404449 
	C277.297943,499.387756 300.999023,499.387817 324.700104,499.404205 
	C326.849518,499.405701 329.019135,499.303894 331.518066,500.314423 
	C333.122528,501.674500 333.437988,503.164276 333.437286,504.666626 
	C333.431549,517.145386 334.090637,529.631470 332.955811,542.527100 
	C330.480103,546.912659 328.062592,550.818726 323.566284,553.280823 
	C322.570190,553.028381 322.092529,552.588501 321.664551,552.070679 
	C314.310028,543.172546 305.287933,544.069153 300.244202,554.348572 
	C298.446960,558.011353 295.830078,561.351868 295.432007,565.924561 
	C295.799988,568.693298 294.337036,570.199219 292.369202,571.776978 
	C291.878113,572.079163 291.680725,572.195862 290.915710,572.687378 
	C287.954132,574.710205 286.687744,577.183350 285.402710,579.673950 
	C284.523254,581.378418 283.990784,583.423645 281.486298,584.013306 
z"/>
<path fill="#854F37" opacity="1.000000" stroke="none" 
	d="
M649.176147,63.470646 
	C643.757568,59.264557 638.416260,55.595100 636.755676,48.611141 
	C636.407349,47.145920 636.043884,46.207634 636.598022,44.626507 
	C640.397888,33.785522 652.137207,27.970982 663.092041,35.469128 
	C668.597961,39.237732 675.652344,38.952579 681.593018,41.919857 
	C689.332642,45.785702 696.969055,49.408062 701.310608,57.637524 
	C705.797424,66.142296 705.936951,74.463051 702.407593,83.326149 
	C698.540649,93.037033 695.260376,102.981560 691.371704,112.954178 
	C685.969360,112.687210 681.234741,111.229652 676.796997,108.809616 
	C670.666748,105.466576 669.299072,102.353058 670.825623,95.245583 
	C671.281006,93.125374 671.875610,91.005936 671.104492,88.853821 
	C670.092041,86.028244 667.925964,84.789925 665.042969,84.394394 
	C656.104004,83.167984 652.892456,79.782707 652.957825,70.775749 
	C652.981445,67.518410 652.097290,65.354904 649.176147,63.470646 
z"/>
<path fill="#010100" opacity="1.000000" stroke="none" 
	d="
M290.830566,571.183594 
	C293.390106,570.559570 293.989746,568.470703 294.965271,566.346802 
	C296.401764,559.704407 299.930145,555.205017 306.430908,554.015259 
	C313.678864,552.688721 318.773041,556.209229 322.537720,562.653687 
	C323.600128,566.470520 323.583466,569.902588 322.300262,573.674988 
	C320.147705,578.118713 318.154388,582.194336 315.982300,586.590820 
	C315.759949,588.257019 314.388519,589.806030 316.726440,590.896423 
	C320.127563,598.995544 320.472534,607.461365 319.757019,615.797119 
	C319.404053,619.909851 315.935547,622.933960 311.177551,622.976257 
	C302.699493,623.051514 294.207062,623.286194 285.746216,622.897278 
	C280.166473,622.640747 277.023987,619.431396 276.795624,613.719421 
	C276.496887,606.246582 275.938110,598.967529 279.120422,591.545105 
	C282.515198,584.867004 285.716766,578.515137 289.809570,572.255554 
	C290.019287,571.967163 289.994507,571.997009 289.981476,572.011353 
	C290.200836,571.803467 290.434753,571.582825 290.830566,571.183594 
z"/>
<path fill="#F18A01" opacity="1.000000" stroke="none" 
	d="
M696.645081,576.050415 
	C700.462463,576.001892 700.721008,579.285706 701.930664,581.264526 
	C705.600281,587.267944 706.659607,594.086609 707.022095,601.452820 
	C695.541809,605.642883 684.879822,611.590027 673.067444,614.586670 
	C658.853760,618.192383 644.701599,622.091797 630.103882,623.784607 
	C624.056213,624.485901 618.075684,623.839294 613.438538,618.329590 
	C612.252258,615.837341 613.963135,614.010254 613.997192,611.559692 
	C620.282471,606.467041 627.776245,604.387756 634.915955,601.546997 
	C636.900452,600.757324 638.990723,600.217346 640.958496,598.572449 
	C646.626770,595.019226 649.608521,589.901001 651.804077,584.203918 
	C652.859436,581.465515 654.199707,579.034973 657.818054,578.440796 
	C661.655701,578.680786 664.102661,580.331421 665.437378,583.598145 
	C666.079285,585.169128 667.148926,586.399292 668.635376,587.289246 
	C675.908569,591.643799 690.051819,587.377747 693.695435,579.675659 
	C694.339050,578.315125 694.864380,576.918823 696.645081,576.050415 
z"/>
<path fill="#F28A00" opacity="1.000000" stroke="none" 
	d="
M590.940369,574.411499 
	C593.457214,572.535278 596.121765,571.490356 599.587097,572.050659 
	C600.851990,572.322083 601.548218,572.864380 601.755188,573.682922 
	C603.153687,579.214172 607.085876,581.403015 612.362427,581.642090 
	C618.956177,581.940796 625.375488,581.557739 629.696960,575.435730 
	C630.552124,574.224182 631.185852,572.846802 632.733032,571.703247 
	C634.994873,571.074036 636.242310,572.167664 637.692383,573.737061 
	C641.647400,581.154236 643.422852,588.552673 641.459351,596.894958 
	C619.826477,603.485657 598.263611,608.847534 575.933838,610.439270 
	C570.317139,610.839722 564.733643,612.105225 559.095703,610.401917 
	C555.864990,609.425842 552.740662,608.403687 550.236023,605.336914 
	C549.926880,605.037842 549.994568,605.005432 549.975586,605.037720 
	C549.857971,604.865601 549.759460,604.661133 549.821289,604.156372 
	C548.935791,598.226685 552.568909,596.084412 558.228943,594.115784 
	C563.540771,592.268066 569.100952,591.124756 574.567932,589.734802 
	C582.712708,587.664001 587.949646,582.442261 590.940369,574.411499 
z"/>
<path fill="#0D79E0" opacity="1.000000" stroke="none" 
	d="
M558.093628,97.554115 
	C555.987427,104.237587 556.900574,110.794380 556.514648,117.191071 
	C555.374146,136.093582 554.762878,155.028046 554.014099,174.402924 
	C555.325378,176.986420 555.132385,179.243423 554.834290,181.574951 
	C554.142822,186.982986 554.784485,192.439835 554.319824,198.320724 
	C552.760681,203.754135 554.454407,209.092422 552.319092,214.418945 
	C551.405518,227.920563 550.712280,241.025101 550.061279,254.591400 
	C552.645569,260.242371 550.069641,265.554779 550.458679,270.803467 
	C550.642395,273.282166 550.573120,275.793060 550.247253,278.725830 
	C549.396484,281.797150 547.499146,282.976715 544.475830,283.134705 
	C545.062622,260.134613 545.875488,237.244064 547.169067,214.380707 
	C547.900208,201.459625 548.562805,188.542770 549.113098,175.612183 
	C550.065613,153.229675 551.350281,130.863251 552.200073,108.472122 
	C552.709412,95.050690 553.912476,81.652756 554.085022,68.204147 
	C554.135864,64.237831 554.562073,60.265408 555.013611,56.318363 
	C555.429749,52.681236 553.799744,51.840160 550.435181,51.880508 
	C537.448730,52.036236 524.459351,51.943352 511.471069,51.943287 
	C472.839264,51.943089 434.207458,51.947937 395.575653,51.928471 
	C393.601990,51.927475 391.563904,52.302006 389.297913,51.130188 
	C388.409149,47.714859 389.813385,46.909286 393.014343,46.915188 
	C447.316864,47.015274 501.619598,46.994808 555.922302,46.964584 
	C559.271118,46.962723 562.188293,47.017143 560.054138,51.696674 
	C559.864380,52.112675 559.986206,52.686554 560.014893,53.184132 
	C560.741760,65.792709 558.359375,78.325043 559.086609,90.922958 
	C559.215393,93.153931 558.200195,95.033875 558.093628,97.554115 
z"/>
<path fill="#ECB3B4" opacity="1.000000" stroke="none" 
	d="
M648.780518,63.490376 
	C652.971985,63.463596 655.383118,64.840302 654.266357,69.651985 
	C653.584534,72.589569 654.483398,75.618050 655.750122,78.365074 
	C657.079834,81.248886 658.994141,82.955803 662.661865,82.909843 
	C671.364624,82.800766 674.383606,86.983307 672.159729,95.337578 
	C670.360413,102.096802 671.715332,104.766090 677.945801,108.147705 
	C681.961426,110.327194 686.609131,110.398460 690.816162,112.771347 
	C691.017639,114.130150 691.016357,115.176224 691.047241,116.613007 
	C685.549866,118.079613 680.879333,120.178688 679.531250,126.759537 
	C670.447998,127.602730 661.587036,127.990829 652.351196,127.426453 
	C652.075867,125.451515 652.158020,123.771881 652.206543,121.679260 
	C651.851013,118.323715 649.203247,117.916748 647.225708,117.189034 
	C644.038208,116.016098 640.648804,115.392128 637.104736,114.228996 
	C633.256104,109.820114 632.863342,105.776436 636.168274,101.069252 
	C638.293091,98.042793 639.177368,94.551170 635.096741,91.649643 
	C631.991577,89.441681 632.367676,86.539482 635.730286,85.112976 
	C642.459961,82.258080 645.373169,77.173965 646.199829,70.235344 
	C646.462769,68.028343 647.789612,65.948074 648.780518,63.490376 
z"/>
<path fill="#C16C01" opacity="1.000000" stroke="none" 
	d="
M229.938416,574.544556 
	C231.442947,572.222168 231.045563,569.992310 231.046585,567.858276 
	C231.057175,545.890076 231.048721,523.921875 231.038269,501.486267 
	C235.044113,498.467194 239.257309,499.265259 243.885315,500.565735 
	C245.291565,502.851776 245.383392,505.078308 245.410583,507.184998 
	C245.694260,529.170593 245.713547,551.157715 245.291321,573.606750 
	C245.085861,588.043945 244.939240,602.019836 245.084488,615.992676 
	C245.118225,619.238342 244.261063,620.117859 240.998535,620.094177 
	C229.989822,620.014465 229.990417,620.154053 229.988373,608.950256 
	C229.986298,597.635925 229.980621,586.321594 229.938416,574.544556 
z"/>
<path fill="#BF6C00" opacity="1.000000" stroke="none" 
	d="
M331.160461,544.436218 
	C331.811951,542.625488 332.199921,541.259033 332.189301,539.711304 
	C332.103180,527.145264 332.080750,514.578796 331.936157,501.560120 
	C335.775177,498.372498 340.010010,499.371704 344.653595,500.384979 
	C347.834900,506.290436 346.480927,512.033569 345.269165,518.223145 
	C345.070801,535.440735 345.043243,552.205139 345.034271,568.969482 
	C345.033478,570.442078 344.776398,571.978943 345.953186,573.673828 
	C346.097382,587.944580 345.925018,601.837769 346.090271,615.726990 
	C346.131653,619.204285 345.246460,620.458069 341.729980,620.063599 
	C338.626160,619.715454 335.469360,619.840027 332.117340,619.373535 
	C331.031494,606.409607 331.749725,593.812012 331.520477,581.223938 
	C331.484253,579.233582 331.519592,577.242004 331.490295,574.770264 
	C329.655334,564.513245 330.146545,554.714844 331.160461,544.436218 
z"/>
<path fill="#FBC428" opacity="1.000000" stroke="none" 
	d="
M245.585083,574.048950 
	C243.677689,572.184204 244.003204,569.974548 244.002960,567.832703 
	C244.000427,545.874146 244.005875,523.915527 244.014282,501.489746 
	C244.442398,500.666992 244.925934,500.537323 245.786743,500.863281 
	C249.371613,525.466919 256.939941,548.281067 270.620453,568.894592 
	C271.516602,570.244873 272.987091,571.300049 273.048431,573.494324 
	C264.046844,573.910034 255.045395,573.969421 245.585083,574.048950 
z"/>
<path fill="#005BB8" opacity="1.000000" stroke="none" 
	d="
M713.038818,578.415771 
	C735.288513,578.076782 757.692871,578.034668 780.097168,578.022522 
	C780.898376,578.022095 781.699768,578.318054 782.781372,578.797180 
	C782.050537,580.570312 781.109680,582.077637 780.015625,583.464111 
	C775.851196,588.741760 771.115601,591.842529 763.639038,591.218506 
	C753.573792,590.378418 743.314575,590.267944 733.271362,591.230103 
	C724.214722,592.097900 719.196106,587.798645 714.985718,581.018921 
	C714.475647,580.197510 713.794983,579.482117 713.038818,578.415771 
z"/>
<path fill="#050300" opacity="1.000000" stroke="none" 
	d="
M613.113281,618.387695 
	C620.101257,623.274597 627.903748,623.315674 635.956726,621.796692 
	C650.999268,618.959290 665.874878,615.424805 680.510986,610.930298 
	C684.960632,609.563782 689.315186,607.942688 693.409180,605.637451 
	C697.359863,603.412903 701.566467,601.871277 706.636719,602.020142 
	C711.958496,606.275940 710.770386,611.888245 704.118103,613.897766 
	C697.370667,615.936035 690.443420,617.397461 683.564087,618.976807 
	C673.688232,621.243835 663.829407,623.625061 653.880188,625.521179 
	C643.311707,627.535217 632.655823,629.670715 621.866455,626.939087 
	C617.523010,625.839539 614.487610,623.102966 613.113281,618.387695 
z"/>
<path fill="#ECB3B2" opacity="1.000000" stroke="none" 
	d="
M697.002136,575.639282 
	C696.633240,576.494873 696.176025,576.997314 695.893799,577.583923 
	C691.089233,587.569153 683.047363,591.771912 672.004700,589.861511 
	C668.686035,589.287415 665.310547,588.170166 664.393799,584.445862 
	C663.576416,581.125244 661.406372,579.985474 658.246765,579.157227 
	C656.971802,578.002258 656.909485,576.826477 657.164551,575.168640 
	C658.014343,573.260742 659.362244,572.524719 660.836609,572.219421 
	C671.109863,570.092468 681.400452,568.049438 691.816650,566.727478 
	C692.472351,566.644226 693.139893,566.845459 694.185730,567.165894 
	C696.497681,568.847900 696.843811,571.088623 697.165039,573.674072 
	C697.017334,574.488281 697.006348,574.906738 697.002136,575.639282 
z"/>
<path fill="#050300" opacity="1.000000" stroke="none" 
	d="
M549.962280,605.419495 
	C562.507324,613.234497 575.970581,609.105469 589.094604,607.488892 
	C603.377075,605.729675 617.704590,603.807861 631.141724,598.052734 
	C633.927734,596.859436 636.965698,596.858154 640.401367,597.180054 
	C641.606140,597.197144 642.041138,597.663635 642.248535,598.678894 
	C640.847717,601.233582 638.354675,601.420349 636.271973,602.281250 
	C629.112549,605.240906 621.917053,608.113403 614.365967,611.092590 
	C608.105469,612.112305 602.115479,612.664062 596.349548,614.109619 
	C589.886780,615.729858 583.249390,615.345459 576.831726,615.603821 
	C568.548767,615.937256 559.429504,616.744812 552.312988,610.129944 
	C550.942566,608.856079 549.992126,607.665039 549.962280,605.419495 
z"/>
<path fill="#F7C32A" opacity="1.000000" stroke="none" 
	d="
M697.486572,574.050171 
	C695.679138,572.376282 694.859680,570.489136 694.861755,567.880493 
	C694.992798,558.678223 695.475586,549.900879 696.878784,540.760498 
	C697.185486,539.777527 697.497803,539.289185 698.314941,538.677307 
	C699.970581,549.222412 703.276184,559.312439 708.294739,568.869446 
	C709.041260,570.291138 710.308105,571.534241 709.938721,573.726990 
	C705.856018,574.075562 701.900452,574.053101 697.486572,574.050171 
z"/>
<path fill="#FBC428" opacity="1.000000" stroke="none" 
	d="
M330.922516,544.231323 
	C333.123779,546.657715 331.952362,549.729736 332.026398,552.605469 
	C332.201416,559.402893 332.046478,566.208740 332.004486,573.475891 
	C331.849640,574.126526 331.715240,574.312561 331.283691,574.324951 
	C328.331635,574.108215 325.676819,574.065125 322.581482,574.032471 
	C321.026672,570.740479 322.993469,567.288025 321.536591,563.583740 
	C321.425415,559.962036 321.100433,556.719055 322.710541,553.327148 
	C326.168945,550.705261 328.170349,547.360107 330.922516,544.231323 
z"/>
<path fill="#A73800" opacity="1.000000" stroke="none" 
	d="
M331.002808,574.605713 
	C331.151123,574.108521 331.315796,574.065674 331.732239,573.981689 
	C331.967621,588.647888 331.951202,603.355164 331.916748,618.526855 
	C330.185242,617.735291 331.086395,615.925415 331.076324,614.411316 
	C330.989227,601.294739 331.022034,588.177307 331.002808,574.605713 
z"/>
<path fill="#6F3F2B" opacity="1.000000" stroke="none" 
	d="
M289.711304,572.111572 
	C287.663391,578.850403 283.398438,584.713074 279.533295,591.061523 
	C278.838104,588.731812 280.487244,586.876709 281.093506,584.316162 
	C284.808289,580.672729 285.277618,575.172180 289.711304,572.111572 
z"/>
<path fill="#6F3F2B" opacity="1.000000" stroke="none" 
	d="
M317.005188,590.593750 
	C316.051025,592.187439 314.356750,592.439636 313.693878,591.408875 
	C312.701996,589.866455 314.250000,588.485168 315.500275,587.064453 
	C316.299316,587.979614 317.278992,588.878723 317.005188,590.593750 
z"/>
<path fill="#FFC629" opacity="1.000000" stroke="none" 
	d="
M219.595947,186.003082 
	C219.848083,186.336456 219.835098,186.773529 219.481079,187.172272 
	C219.203629,186.791565 219.267227,186.449173 219.595947,186.003082 
z"/>
<path fill="#050300" opacity="1.000000" stroke="none" 
	d="
M549.716431,603.952148 
	C550.145996,604.061890 550.310303,604.267700 550.215576,604.771729 
	C549.470520,604.886475 548.793030,604.797546 549.716431,603.952148 
z"/>
<path fill="#010100" opacity="1.000000" stroke="none" 
	d="
M697.678955,539.593384 
	C697.181580,549.027039 697.467468,558.081787 695.070557,567.202209 
	C682.645020,569.743958 670.479736,572.009888 658.142578,574.620178 
	C656.203369,576.301270 654.464050,577.263611 652.853516,574.186890 
	C640.614380,532.023010 632.960571,489.452362 628.670898,446.835175 
	C625.059509,450.505157 625.268005,455.516632 626.492981,461.131439 
	C632.001465,486.380249 635.310547,511.942780 635.288757,537.803040 
	C635.281250,546.715454 634.897888,555.754395 632.461243,564.895691 
	C621.979065,567.894409 611.532959,569.039124 600.636780,569.390259 
	C595.708557,570.395691 593.790649,568.235352 592.288330,564.044006 
	C579.873962,529.408691 570.635864,494.156403 570.646423,457.027893 
	C570.654480,428.531677 578.174927,401.461395 586.580200,374.589203 
	C592.836060,354.589111 600.384827,335.055237 608.487183,315.311035 
	C624.507202,311.543915 640.205933,307.497375 655.304993,301.345734 
	C656.763550,300.751465 658.575195,300.914307 660.223267,300.911865 
	C676.505981,300.887665 692.788696,300.902832 709.540405,300.923950 
	C710.908203,301.808624 710.957214,302.841980 710.351807,304.281921 
	C710.008972,312.179932 709.911987,319.751068 709.866455,327.807007 
	C710.814819,333.217743 711.056458,338.102264 708.682129,343.113647 
	C704.920654,379.375793 696.704346,414.195709 682.597107,447.536499 
	C681.503906,450.120117 681.785828,452.175751 682.635132,454.620453 
	C690.366638,476.875519 695.314392,499.724609 697.020996,523.700073 
	C697.523743,529.137695 698.230713,534.115601 697.678955,539.593384 
z"/>
<path fill="#015CB8" opacity="1.000000" stroke="none" 
	d="
M783.305176,488.562256 
	C760.331360,488.928680 737.200684,488.982147 713.611389,489.044800 
	C716.242615,484.785339 720.439270,481.752655 724.868835,479.126282 
	C727.303528,477.682709 727.299255,476.713684 725.574036,474.700928 
	C719.719116,467.870453 714.101135,460.836273 708.219849,454.029266 
	C706.483826,452.019897 706.424072,450.684448 708.076477,448.567322 
	C714.224426,440.690491 720.161255,432.648804 726.318848,424.339050 
	C727.560364,422.777985 729.061401,422.534027 730.564148,422.513947 
	C742.555054,422.353516 754.546692,422.284058 766.537231,422.550385 
	C767.539490,422.572662 768.509277,422.861420 769.762573,423.695587 
	C776.131531,431.994476 782.039490,440.032501 788.199646,447.872375 
	C790.167480,450.376862 790.435974,452.016602 788.150146,454.570892 
	C782.608643,460.763092 777.528992,467.366455 772.063965,473.630310 
	C769.816406,476.206421 768.862427,477.760132 772.810547,479.717957 
	C776.824097,481.708252 780.113342,484.901825 783.305176,488.562256 
z"/>
<path fill="#0A75E0" opacity="1.000000" stroke="none" 
	d="
M770.340210,423.761261 
	C755.862854,424.022400 741.599792,424.011536 726.898682,424.004913 
	C722.580322,415.560364 718.781433,407.072723 714.772949,398.685272 
	C713.484558,395.989258 713.494568,394.777466 716.945496,394.985168 
	C719.928528,395.164734 722.932739,394.992279 726.379395,394.920624 
	C728.710999,393.187195 731.013916,393.591522 733.705872,393.554993 
	C741.157898,393.349915 748.134155,393.426239 755.590820,393.515137 
	C761.558655,393.613373 767.087585,392.728699 772.888733,394.543274 
	C776.454407,395.720581 781.172485,393.245850 782.587280,396.279785 
	C783.502869,398.243225 780.397156,402.114044 779.032166,405.102234 
	C776.228149,411.241211 773.382935,417.361389 770.340210,423.761261 
z"/>
<path fill="#17A77A" opacity="1.000000" stroke="none" 
	d="
M773.447021,394.604034 
	C767.635742,394.874756 762.008545,394.890930 755.881958,394.816040 
	C754.826172,393.102631 755.268188,391.732269 756.691772,390.263672 
	C759.854431,385.786774 762.704041,381.549286 765.691711,377.411499 
	C767.656128,374.690704 770.056580,372.375092 773.131409,370.892059 
	C777.490723,368.789490 781.210693,369.868622 784.363647,373.314331 
	C787.476196,376.715973 787.761047,380.373779 785.182922,384.229492 
	C782.236145,388.636353 777.981689,391.546936 773.447021,394.604034 
z"/>
<path fill="#17A77A" opacity="1.000000" stroke="none" 
	d="
M766.768738,310.394928 
	C767.684204,300.973663 769.892761,292.321411 773.974792,284.200623 
	C775.488831,281.188629 777.443970,278.399200 780.859985,277.309448 
	C784.237183,276.231995 787.117920,277.590088 789.527649,279.859406 
	C791.759705,281.961395 792.460815,284.582733 791.511108,287.613220 
	C789.646851,293.561859 785.536255,297.918274 781.297363,302.183655 
	C777.413818,306.091492 773.180359,309.595062 768.415649,312.949524 
	C766.194336,313.232483 766.430603,311.950439 766.768738,310.394928 
z"/>
<path fill="#127C5A" opacity="1.000000" stroke="none" 
	d="
M746.798523,288.641876 
	C745.286987,304.464111 737.303284,317.330109 729.684998,330.445038 
	C728.470093,321.189362 729.424683,312.055145 730.508423,302.952148 
	C731.135803,297.682709 732.090027,292.419922 734.630737,287.641296 
	C735.996399,285.072571 737.662781,282.784943 741.044495,282.927887 
	C744.481628,283.073151 745.906067,285.346191 746.798523,288.641876 
z"/>
<path fill="#19A779" opacity="1.000000" stroke="none" 
	d="
M787.093750,239.155029 
	C788.528809,242.675659 787.777954,245.814499 786.983154,248.846817 
	C783.710876,261.330597 777.520630,272.472900 770.371826,284.880096 
	C769.645081,274.363129 770.537048,265.406464 771.573486,256.473022 
	C772.244141,250.692139 773.179871,244.901184 776.169739,239.772415 
	C779.038330,234.851776 782.845154,234.580215 787.093750,239.155029 
z"/>
<path fill="#17A77A" opacity="1.000000" stroke="none" 
	d="
M759.337708,283.672607 
	C760.080627,280.995026 758.322815,279.643127 757.628906,278.128784 
	C754.783447,271.918823 751.987854,265.702545 750.535706,258.989777 
	C750.187012,257.377747 750.050598,255.705536 749.967346,254.053406 
	C749.801025,250.750671 750.841614,248.045700 754.333740,247.111832 
	C757.864380,246.167694 760.034302,248.214630 761.623413,251.001358 
	C763.711853,254.663757 764.597839,258.719330 765.376221,262.825623 
	C767.336609,273.167023 767.373230,283.613159 766.712219,294.491974 
	C765.497437,292.524048 764.282654,290.556122 762.854065,288.303436 
	C761.388489,286.977661 760.526306,285.622498 759.337708,283.672607 
z"/>
<path fill="#19A779" opacity="1.000000" stroke="none" 
	d="
M747.193909,289.344360 
	C746.949402,288.970276 746.963257,289.009369 746.969788,289.037415 
	C748.150085,280.560547 751.856995,278.572723 758.656494,283.031006 
	C759.041199,283.053772 759.000671,283.018463 758.986816,282.995422 
	C760.169495,284.191437 760.892029,285.668793 761.275146,287.652344 
	C763.892456,295.156647 764.120056,302.856659 766.592529,310.087036 
	C767.187439,310.901276 767.365662,311.775909 767.819397,312.851318 
	C765.277588,314.571320 766.095032,317.218170 766.073547,319.597809 
	C766.056335,321.507812 766.070068,323.418060 765.628418,325.450409 
	C757.840515,314.353027 750.677734,303.040680 747.193909,289.344360 
z"/>
<path fill="#19A779" opacity="1.000000" stroke="none" 
	d="
M753.566162,326.930359 
	C759.643005,323.182251 763.793884,324.896545 765.059143,331.463501 
	C766.572937,339.320068 764.918396,346.983124 763.306335,354.594421 
	C762.073669,360.413971 760.424561,366.145294 758.890320,372.193359 
	C755.173706,366.238434 751.867432,347.093964 751.968994,332.501801 
	C750.592896,329.923492 752.044800,328.538879 753.566162,326.930359 
z"/>
<path fill="#17A77A" opacity="1.000000" stroke="none" 
	d="
M743.664917,340.719177 
	C751.498413,352.047729 755.177246,363.530548 757.439697,383.182068 
	C751.856628,379.908569 738.984253,361.384338 734.361694,350.189087 
	C731.739685,346.918091 732.605591,343.942719 734.861328,341.488983 
	C737.215942,338.927673 740.235962,338.409760 743.664917,340.719177 
z"/>
<path fill="#17A77A" opacity="1.000000" stroke="none" 
	d="
M767.261658,342.303833 
	C769.038757,334.603058 770.542542,327.215942 775.215149,321.068939 
	C778.151306,317.206360 781.853638,315.019440 786.922363,316.630676 
	C791.816528,318.186462 793.282410,321.128387 791.166870,325.808319 
	C790.152344,328.052795 788.797363,330.231018 787.210022,332.113281 
	C781.289795,339.133453 774.410767,345.112701 766.136841,351.000641 
	C766.552917,347.685944 766.865356,345.197235 767.261658,342.303833 
z"/>
<path fill="#127C5A" opacity="1.000000" stroke="none" 
	d="
M708.687866,343.559326 
	C708.816956,338.606873 709.269104,333.828156 709.819580,328.670654 
	C715.840637,326.568024 718.570374,330.414612 720.682495,334.777161 
	C724.935608,343.561951 726.451355,353.109741 727.911316,362.643341 
	C728.354431,365.536987 728.626892,368.456757 729.123108,372.571808 
	C720.477234,363.315826 715.086975,353.281555 708.687866,343.559326 
z"/>
<path fill="#127C5A" opacity="1.000000" stroke="none" 
	d="
M734.217529,394.615814 
	C731.904236,394.916809 729.813721,394.944519 727.277222,394.919037 
	C722.054138,389.361176 716.616333,384.432587 712.503723,378.347168 
	C710.732666,375.726471 708.915527,373.104340 708.129028,370.017242 
	C707.403442,367.169128 707.360840,364.299713 710.449524,362.598755 
	C713.275879,361.042236 715.906921,361.634705 718.253906,363.676514 
	C722.633850,367.487030 725.063660,372.598663 727.503967,377.696777 
	C727.933167,378.593597 728.361694,379.490784 728.980225,380.690369 
	C729.349609,381.139557 729.529175,381.286163 730.008362,381.614380 
	C730.451416,381.981567 730.594971,382.167114 730.900879,382.665588 
	C732.052795,386.806976 734.255676,390.274872 734.217529,394.615814 
z"/>
<path fill="#127C5A" opacity="1.000000" stroke="none" 
	d="
M744.238770,340.890686 
	C736.095398,339.718964 734.073914,341.369232 734.056519,349.571289 
	C732.307434,351.398468 730.543091,352.807159 728.778748,354.215881 
	C729.196594,343.066498 730.508484,332.417877 737.790649,323.858795 
	C743.006958,317.727844 750.650574,318.957916 753.818359,326.372253 
	C753.270325,328.306122 752.658875,329.842621 752.014282,331.708099 
	C749.497681,334.929718 747.014282,337.822327 744.238770,340.890686 
z"/>
<path fill="#127C5A" opacity="1.000000" stroke="none" 
	d="
M710.377808,304.867676 
	C710.079895,303.635956 710.053711,302.663055 710.018494,301.315674 
	C711.758301,295.803162 713.507141,290.665192 715.494751,285.283661 
	C719.937500,287.173340 720.955750,291.360992 721.986450,295.325073 
	C725.065369,307.167572 725.388367,319.267151 724.981140,332.681183 
	C718.693115,323.416351 714.751282,314.228333 710.377808,304.867676 
z"/>
<path fill="#127C5A" opacity="1.000000" stroke="none" 
	d="
M718.253784,276.785828 
	C720.437195,268.841644 722.934265,261.141998 725.699951,253.201569 
	C729.495300,257.028992 729.547058,262.143616 729.859558,267.032318 
	C730.548828,277.814362 729.203186,288.493317 727.514404,300.558655 
	C723.271545,292.274933 721.106567,284.576843 718.253784,276.785828 
z"/>
<path fill="#19A779" opacity="1.000000" stroke="none" 
	d="
M729.802246,381.270569 
	C731.779907,374.449036 735.898132,372.523956 741.888245,375.714569 
	C747.888062,378.910400 752.045044,384.123169 756.222534,389.747955 
	C756.159729,390.292053 755.918030,390.642944 755.639343,390.661224 
	C746.197205,391.280975 737.493469,389.552887 730.203491,382.298065 
	C729.959534,381.958130 730.015259,381.986755 730.020386,382.017639 
	C729.894897,381.879822 729.764160,381.711151 729.802246,381.270569 
z"/>
<path fill="#F7C32A" opacity="1.000000" stroke="none" 
	d="
M729.913940,382.348938 
	C737.480042,387.756409 746.379456,389.318420 755.936646,390.161407 
	C756.393982,390.058197 756.667603,390.000671 756.806885,389.991272 
	C756.511658,391.334259 756.077148,392.686646 755.512573,394.381958 
	C748.565552,394.820923 741.748535,394.916901 734.463135,394.950989 
	C732.619263,390.839294 731.243774,386.789520 729.913940,382.348938 
z"/>
<path fill="#865037" opacity="1.000000" stroke="none" 
	d="
M697.878540,539.815369 
	C696.333191,535.092957 697.276672,530.023987 696.942688,524.589722 
	C697.218445,524.202942 697.399902,524.255676 697.862793,524.344788 
	C698.385071,528.841431 698.626038,533.301819 698.788452,538.122864 
	C698.505127,538.853027 698.300232,539.222534 697.878540,539.815369 
z"/>
<path fill="#F7C32A" opacity="1.000000" stroke="none" 
	d="
M761.455566,288.008179 
	C760.425415,286.560272 759.632263,285.116211 758.906006,283.322266 
	C761.575012,283.301849 761.257812,285.936279 762.545776,287.698242 
	C762.324402,288.019897 762.008484,288.017670 761.455566,288.008179 
z"/>
<path fill="#865037" opacity="1.000000" stroke="none" 
	d="
M698.825989,518.460815 
	C698.882874,518.511658 698.968079,518.543396 698.922913,518.546387 
	C698.877747,518.549438 698.769104,518.409973 698.825989,518.460815 
z"/>
<path fill="#F7C32A" opacity="1.000000" stroke="none" 
	d="
M729.770813,380.996277 
	C730.050110,381.169952 730.129211,381.341278 730.116943,381.780579 
	C729.743713,381.879456 729.461853,381.710388 729.174988,381.267120 
	C729.169983,380.992920 729.570557,380.993958 729.770813,380.996277 
z"/>
<path fill="#F38B00" opacity="1.000000" stroke="none" 
	d="
M220.505798,360.329773 
	C210.997147,360.097015 210.997681,360.097015 210.985046,351.061737 
	C210.983673,350.078583 210.971634,349.095459 210.972412,347.659912 
	C209.592072,344.815826 209.374603,342.198547 209.381577,339.501801 
	C209.405624,330.195404 209.384445,320.888855 209.392670,311.582367 
	C209.402313,300.671082 209.723694,300.356262 221.021759,300.477295 
	C223.468033,300.516205 225.424683,300.321136 227.868454,300.534973 
	C257.769348,300.243256 287.182312,300.433838 317.081360,300.477966 
	C319.843353,300.487701 322.119415,300.328827 324.886047,300.532837 
	C336.822357,300.229889 348.269653,300.329926 359.713745,300.468170 
	C365.231750,300.534821 366.490295,301.803314 366.544983,307.329437 
	C366.700958,323.089783 366.654236,338.851807 366.560822,354.612946 
	C366.548096,356.759735 366.513916,358.978729 364.162933,360.758118 
	C359.940521,361.924530 356.098236,361.453613 351.803925,361.440857 
	C349.465240,361.498749 347.597290,361.568176 345.261841,361.446899 
	C340.721375,361.583496 336.647980,361.580688 332.094971,361.464478 
	C302.877319,361.759491 274.138702,361.566254 244.920685,361.524719 
	C240.327499,361.591705 236.213623,361.552185 231.627548,361.482727 
	C227.711029,361.380005 224.205048,362.065369 220.505798,360.329773 
z"/>
<path fill="#F38B00" opacity="1.000000" stroke="none" 
	d="
M246.566864,501.102112 
	C245.640579,501.072601 245.177689,501.051819 244.367142,501.026794 
	C239.996643,501.020721 235.973816,501.018890 231.490967,501.017944 
	C226.058701,501.016876 221.086197,500.984222 216.114273,501.023407 
	C212.598145,501.051147 210.969269,499.365143 210.977722,495.862427 
	C211.008118,483.266113 211.005188,470.669708 210.980011,458.073395 
	C210.972931,454.534607 212.711624,452.946320 216.186707,452.977295 
	C220.827087,453.018677 225.468155,452.983917 230.580124,452.980591 
	C234.889404,450.394043 239.195358,451.769867 243.797180,451.526794 
	C273.057648,451.244690 301.832062,451.430237 331.086426,451.475189 
	C335.684174,451.407623 339.802063,451.442017 344.392120,451.516724 
	C349.494171,451.409668 354.124756,451.443909 358.754028,451.538513 
	C360.746185,451.579224 362.737854,451.748138 364.615112,453.568604 
	C364.951324,467.776611 364.872101,481.606995 365.137482,495.430786 
	C365.223694,499.922180 363.480438,501.452271 359.238068,501.054260 
	C357.092438,500.852936 354.909882,501.044830 352.271545,501.092407 
	C349.932587,502.275970 347.983246,502.594849 345.571106,501.435486 
	C341.080261,501.111511 336.932434,501.064636 332.309021,501.062744 
	C303.565704,501.108795 275.297974,501.109802 246.566864,501.102112 
z"/>
<path fill="#E04E01" opacity="1.000000" stroke="none" 
	d="
M222.479919,301.412170 
	C218.675583,302.556732 214.005142,300.299744 211.777908,302.953186 
	C209.488724,305.680420 211.069092,310.255829 211.031860,314.013611 
	C210.925491,324.750519 210.991959,335.489136 210.985367,346.717285 
	C205.918472,343.011444 204.888306,336.834961 204.228729,331.057953 
	C202.205124,313.334015 202.993637,295.583893 204.673996,277.823517 
	C205.771454,266.224121 207.720154,254.805008 209.979294,243.414291 
	C210.393326,241.326691 211.348618,239.346451 212.314484,236.993317 
	C215.016235,243.142029 217.381210,249.452164 217.206039,256.731140 
	C217.039474,263.652313 221.080536,269.233551 226.728210,273.825745 
	C227.698715,275.021240 228.283890,276.208710 228.009720,277.309143 
	C226.044876,285.195129 225.364395,293.362732 222.479919,301.412170 
z"/>
<path fill="#BE6A00" opacity="1.000000" stroke="none" 
	d="
M244.514191,452.452698 
	C240.136581,452.892700 236.054291,452.935455 231.511673,452.978760 
	C230.941696,451.594299 231.443176,450.098419 230.165588,448.575317 
	C229.491669,445.811829 229.419067,443.343201 229.406509,440.852356 
	C229.304565,420.650482 229.697861,400.446960 229.175903,379.774231 
	C230.043304,373.188324 228.566223,366.913300 230.693848,360.507629 
	C235.024551,360.129639 239.054382,360.106476 243.546814,360.117798 
	C246.521118,363.391052 245.327393,367.184753 245.523193,370.748047 
	C245.677704,373.560150 245.660156,376.393341 245.482025,379.703735 
	C245.772247,402.680603 245.560059,425.170105 245.569824,447.659210 
	C245.570480,449.160431 245.473923,450.661346 244.514191,452.452698 
z"/>
<path fill="#030201" opacity="1.000000" stroke="none" 
	d="
M229.776718,378.533997 
	C231.488739,379.718506 231.088455,381.173187 231.089630,382.438599 
	C231.109070,403.554626 231.102493,424.670685 231.081619,445.786713 
	C231.080978,446.435608 230.864044,447.084351 230.384003,447.992462 
	C221.441147,441.327606 217.068069,431.945557 215.252991,421.433502 
	C212.728180,406.810852 212.068954,392.139771 216.961609,377.374695 
	C217.318100,376.854675 217.529556,376.682861 218.114471,376.342804 
	C222.258392,376.352692 226.093048,376.184174 229.776718,378.533997 
z"/>
<path fill="#DF4B01" opacity="1.000000" stroke="none" 
	d="
M230.211975,378.483765 
	C226.283936,378.248291 222.534439,377.645966 218.382507,376.953888 
	C217.815170,376.756073 217.650253,376.648041 217.332733,376.286682 
	C218.156174,370.976471 219.132233,365.919525 220.125305,360.444031 
	C223.456360,360.040253 226.770386,360.055054 230.539581,360.111328 
	C230.669388,366.136688 231.770920,372.168549 230.211975,378.483765 
z"/>
<path fill="#E04E01" opacity="1.000000" stroke="none" 
	d="
M217.124573,376.278931 
	C217.435593,376.128815 217.642471,376.287567 217.890411,376.686890 
	C217.980087,376.864136 217.554321,377.006775 217.330490,377.016663 
	C217.094101,376.859161 217.081558,376.691803 217.124573,376.278931 
z"/>
<path fill="#DF4B01" opacity="1.000000" stroke="none" 
	d="
M362.827423,360.387817 
	C365.001678,359.905273 365.052368,358.407349 365.051727,356.833588 
	C365.044769,339.740356 364.980316,322.646667 365.103424,305.554321 
	C365.128265,302.104187 363.310394,301.929321 360.705963,301.940247 
	C349.089752,301.988953 337.473114,301.934692 325.384827,301.871033 
	C324.320618,301.222900 323.844116,300.526276 323.667664,299.707977 
	C321.036377,287.504944 318.644867,275.277954 319.931671,264.982574 
	C318.978912,272.992371 319.658539,283.355774 319.473389,293.695465 
	C319.429138,296.165222 319.758087,298.682159 318.443970,301.389832 
	C295.531982,301.806305 272.897736,301.900055 250.263397,301.960205 
	C243.106430,301.979218 235.949219,301.908478 228.318771,301.808472 
	C225.164444,294.906372 226.423630,287.943665 227.276718,281.025787 
	C227.471954,279.442505 227.928238,277.832001 228.718079,275.903137 
	C242.328827,281.606903 255.992798,283.751862 270.170349,279.017578 
	C286.865479,273.442566 294.027069,260.787811 290.272034,243.618958 
	C289.546631,240.302170 289.419373,237.724930 292.134338,234.749573 
	C296.605774,229.849197 297.119659,223.692017 294.642426,217.456940 
	C293.957611,215.733246 292.872314,214.056152 295.699127,212.674377 
	C298.469299,211.703323 300.872498,211.575531 303.366577,212.099396 
	C311.070801,213.717606 319.047699,214.164825 326.673401,217.790100 
	C327.000427,218.072937 327.015106,217.988892 326.973694,217.978638 
	C327.072937,218.103226 327.213562,218.238083 327.558350,218.582123 
	C340.109253,223.644302 350.879150,230.480911 357.874329,242.248413 
	C361.167328,247.788010 362.577148,253.920624 363.982971,260.068085 
	C366.571075,271.385742 368.697906,282.791931 370.518341,294.600586 
	C371.785583,303.740479 372.838196,312.572479 374.034760,322.612366 
	C380.617645,309.506470 386.213226,297.254761 395.617371,287.015808 
	C397.448883,286.205841 398.915771,286.703796 400.281158,287.259583 
	C407.186890,290.070709 414.636780,291.511353 421.328156,295.823853 
	C422.965485,301.664886 421.205170,306.577850 418.371643,311.644348 
	C414.412811,321.702698 411.106628,331.609039 405.776154,340.654877 
	C402.130859,346.840912 397.985840,352.621521 392.361389,357.177460 
	C385.109589,363.051575 377.028442,365.553253 367.345642,362.906708 
	C365.010193,363.199799 363.536102,362.656830 362.827423,360.387817 
z"/>
<path fill="#030201" opacity="1.000000" stroke="none" 
	d="
M431.349670,189.029968 
	C415.786133,180.972137 408.917236,168.239044 410.150635,150.623199 
	C410.453766,149.765427 410.649750,149.228455 411.030914,148.962143 
	C420.164368,142.580505 425.534149,132.787720 432.979218,124.902740 
	C439.728790,117.754341 448.426788,114.718636 458.351715,116.808144 
	C461.237640,117.415718 463.015564,116.040054 465.076019,114.552956 
	C476.753510,106.124962 494.504028,109.520477 501.431458,121.412216 
	C503.486420,124.939751 504.400635,128.888321 504.853302,132.800308 
	C505.491516,138.315903 506.969971,143.177444 511.458710,146.777405 
	C512.100891,147.292404 512.337036,148.169083 512.618225,149.360962 
	C509.383636,168.775513 497.648407,181.056183 480.429108,189.255951 
	C479.265930,188.995728 478.775055,188.390549 478.442017,187.203476 
	C483.962036,180.799561 485.808777,173.797806 483.979980,165.445007 
	C483.996674,163.691681 484.591888,162.501099 485.221741,161.323044 
	C486.508423,158.916428 487.083771,157.020264 483.218018,156.549698 
	C479.960724,156.153198 479.904388,153.324905 479.728821,150.780457 
	C479.271240,144.149551 479.257965,144.181213 472.696960,143.082642 
	C467.973511,142.291748 463.969574,140.148224 460.446014,136.846481 
	C455.002594,131.745804 449.549255,133.187134 447.173065,140.262054 
	C446.058838,143.579651 445.586090,147.056641 445.172333,150.531311 
	C444.872803,153.046295 443.746094,155.501709 441.102020,155.472916 
	C435.584137,155.412811 436.245575,158.598495 437.010986,162.472626 
	C436.412323,166.899445 433.563446,170.145844 433.130310,174.372803 
	C432.787781,177.715729 432.688507,180.837891 434.232788,184.268555 
	C434.554230,186.723907 433.313599,187.929657 431.349670,189.029968 
z"/>
<path fill="#FCFCFC" opacity="1.000000" stroke="none" 
	d="
M408.803711,265.875793 
	C404.961945,265.762390 401.461487,265.542328 397.979309,265.707520 
	C395.048096,265.846558 393.659027,265.081726 394.004120,261.839905 
	C394.549286,256.718536 394.850220,251.569443 395.174011,246.427002 
	C395.320496,244.100677 396.362030,243.445099 398.704102,243.459045 
	C438.485199,243.695694 478.266907,243.898575 518.048462,243.898514 
	C522.219543,243.898514 523.631653,244.973297 523.145874,249.162048 
	C522.668213,253.281830 522.788757,257.471649 522.661499,261.631195 
	C522.578552,264.344269 521.664429,265.733765 518.484436,265.714844 
	C490.521057,265.548096 462.556671,265.546753 434.217834,265.313477 
	C434.192780,262.260071 437.762115,260.222626 435.938049,256.469727 
	C435.638428,254.328140 435.572540,252.177673 433.178131,252.066040 
	C429.918213,251.914062 429.511566,254.815765 428.346130,257.331207 
	C426.761322,259.012024 425.089783,259.270325 422.912262,258.796509 
	C421.184753,257.851837 421.821228,256.696838 422.093262,255.631500 
	C422.501282,254.033493 422.401703,252.631027 420.575256,252.061401 
	C419.016510,251.575272 417.615479,252.094360 416.614868,253.322372 
	C415.450043,254.751968 415.953766,256.057648 417.237183,257.161041 
	C417.977325,257.797363 418.840454,258.305206 419.358521,259.549683 
	C416.308411,262.483063 412.817017,264.356018 408.803711,265.875793 
z"/>
<path fill="#020201" opacity="1.000000" stroke="none" 
	d="
M365.103821,453.680786 
	C358.748657,451.864807 352.395477,453.380615 345.705566,452.862122 
	C343.803680,451.686646 343.489014,450.031982 343.489990,448.353271 
	C343.504395,423.892303 343.007202,399.429382 343.863037,374.522766 
	C346.116150,370.650696 349.772064,370.562103 353.562317,369.883240 
	C359.309082,371.726044 362.451935,375.974091 365.527191,380.730835 
	C369.719574,387.148315 373.528656,393.367645 376.015320,400.711182 
	C378.730408,413.075104 379.273682,425.121155 376.093475,437.121033 
	C374.343658,443.723724 371.072327,449.417114 365.103821,453.680786 
z"/>
<path fill="#FBFCFD" opacity="1.000000" stroke="none" 
	d="
M418.543884,311.968567 
	C419.237183,306.929260 420.393250,301.910156 421.462158,296.467957 
	C422.202698,292.857697 424.469666,291.025238 427.648865,289.834351 
	C456.769836,290.015015 485.556000,290.210846 514.340393,290.064575 
	C519.015991,290.040863 520.568909,291.341370 519.911499,295.890442 
	C519.389648,299.501526 518.968506,303.192749 519.132446,306.819916 
	C519.315674,310.875732 518.091064,312.136200 513.859192,312.110138 
	C482.242615,311.915375 450.624359,311.995087 418.543884,311.968567 
z"/>
<path fill="#844F37" opacity="1.000000" stroke="none" 
	d="
M436.818878,163.611130 
	C435.687775,161.750626 434.945557,160.110855 434.875793,158.216797 
	C434.769684,155.336853 435.970673,153.444611 438.975159,154.218964 
	C443.146118,155.293961 443.968475,153.029419 444.118286,149.802200 
	C444.296143,145.971298 444.850616,142.190887 446.227448,138.626831 
	C448.925171,131.643738 455.945557,130.263474 461.101013,135.678406 
	C464.705841,139.464645 468.956482,141.644028 474.224304,141.866531 
	C479.977875,142.109558 481.003723,143.259338 480.995575,149.154770 
	C480.990814,152.597672 480.024780,156.563034 486.106293,155.187653 
	C488.296631,154.692337 488.725067,157.046402 488.067383,158.700317 
	C487.283630,160.671249 485.982849,162.436569 484.793579,164.649429 
	C483.857819,165.537415 482.772736,165.792206 482.530029,167.313568 
	C482.150970,168.740295 481.424805,169.595490 480.487518,170.722015 
	C477.133789,173.765808 477.586273,177.750961 476.641785,181.642197 
	C469.832520,186.563690 463.516510,191.727005 455.461914,194.712524 
	C455.153992,194.894760 454.719513,194.823685 454.501221,194.851929 
	C448.480621,191.731430 443.796326,187.239517 439.227051,182.113480 
	C438.452179,178.021820 440.905914,174.184113 438.630493,170.152100 
	C438.195129,169.181625 437.952362,168.518250 437.632172,167.514236 
	C437.282684,166.096436 437.675842,164.906891 436.818878,163.611130 
z"/>
<path fill="#ECB4B5" opacity="1.000000" stroke="none" 
	d="
M543.880920,283.312622 
	C545.547729,282.174347 547.046814,281.334930 548.774780,280.265869 
	C552.671265,276.276245 557.027344,273.906372 562.686462,273.477112 
	C572.284424,271.969849 581.248169,273.373474 590.490234,276.031158 
	C593.361328,278.679932 592.730957,282.024536 592.465637,285.022125 
	C591.783020,292.735870 592.182251,300.536469 590.314575,308.533752 
	C583.498718,308.937378 577.009888,309.053558 570.521790,309.017120 
	C559.763916,308.956726 555.487549,305.921936 552.263245,295.700775 
	C551.574524,293.517487 551.000610,292.371124 548.321777,293.468201 
	C547.178101,294.919159 546.026062,294.966187 544.353027,294.262299 
	C537.480408,290.882141 537.426147,288.615906 543.880920,283.312622 
z"/>
<path fill="#F7C32A" opacity="1.000000" stroke="none" 
	d="
M512.842041,149.336151 
	C506.477112,145.016464 504.365875,138.465637 503.049377,130.931793 
	C499.649017,111.472755 478.491486,104.484970 463.526978,117.567291 
	C462.379211,118.570679 461.655792,118.802315 460.123901,118.431427 
	C447.567505,115.391411 437.026764,119.495651 430.102386,129.821899 
	C424.727325,137.837662 418.478546,144.501312 410.513245,150.153625 
	C411.059937,141.151489 414.883972,133.335602 420.375458,126.334747 
	C435.737396,106.750542 463.259338,98.266800 485.702545,106.047920 
	C504.822540,112.676888 515.072571,128.826462 512.842041,149.336151 
z"/>
<path fill="#855039" opacity="1.000000" stroke="none" 
	d="
M428.119385,289.629822 
	C425.913330,291.810944 423.842377,293.688904 421.573242,295.805878 
	C413.118225,293.099854 404.861481,290.154816 396.268463,287.048706 
	C398.755493,279.355804 402.539795,272.393372 408.248108,266.132050 
	C411.785919,263.383698 414.935486,260.641815 419.482056,259.459839 
	C420.167480,258.638763 420.709229,258.239838 421.734283,257.971924 
	C423.917633,258.263367 425.634888,257.794708 427.693573,257.051697 
	C430.504913,255.169205 433.125824,254.341553 436.430420,255.741241 
	C438.888031,259.713409 437.609344,262.438568 434.087555,264.865051 
	C432.337128,265.605988 431.456055,266.332520 432.585358,267.991364 
	C438.430939,276.578186 434.912323,283.273010 428.119385,289.629822 
z"/>
<path fill="#1179DC" opacity="1.000000" stroke="none" 
	d="
M543.953369,294.443848 
	C545.042053,293.889343 546.121948,293.767059 547.608459,293.653259 
	C546.554932,326.390076 545.098145,359.118591 543.627686,391.846527 
	C543.515625,394.341553 543.690186,397.161346 539.348877,396.462952 
	C539.998108,371.877655 540.618164,347.200256 542.271240,322.592224 
	C542.891479,313.358826 542.027222,304.022369 543.953369,294.443848 
z"/>
<path fill="#F7C128" opacity="1.000000" stroke="none" 
	d="
M365.683411,380.642334 
	C362.187805,377.723053 358.791412,374.343414 355.120697,370.728638 
	C351.511536,368.012146 351.052979,364.294342 350.840607,360.302246 
	C354.728516,360.032623 358.360962,360.041321 362.440430,360.038147 
	C363.578369,361.602661 365.165924,361.826996 366.713470,362.661194 
	C366.541901,368.658600 366.162231,374.420319 365.683411,380.642334 
z"/>
<path fill="#FCF8F5" opacity="1.000000" stroke="none" 
	d="
M439.239807,181.770279 
	C444.359680,185.928238 449.150330,190.109634 454.111938,194.585602 
	C446.151855,195.411133 438.638428,193.247437 431.219116,189.396088 
	C431.991455,188.044739 432.998810,186.945251 434.143402,185.558853 
	C435.336273,183.463348 437.232788,182.774094 439.239807,181.770279 
z"/>
<path fill="#FCF8F5" opacity="1.000000" stroke="none" 
	d="
M455.592987,194.907654 
	C461.892731,190.685532 468.631470,186.476303 475.704041,182.368256 
	C477.784760,182.746597 478.218262,184.069092 478.381531,185.874680 
	C478.718048,186.998077 479.148315,187.778885 479.821381,188.939560 
	C472.563354,193.374176 464.530670,195.147125 455.592987,194.907654 
z"/>
<path fill="#FCFEFD" opacity="1.000000" stroke="none" 
	d="
M590.020874,309.310181 
	C590.313904,298.245514 590.640625,287.601227 590.925537,276.498779 
	C591.118225,274.631226 592.242065,274.398895 593.679321,274.049011 
	C596.202515,272.402039 598.622070,271.867981 601.631226,272.615540 
	C606.322327,271.915283 607.459045,273.549744 607.313660,277.965698 
	C606.920532,289.908478 607.130188,301.871094 607.109070,314.273438 
	C602.240845,314.158691 597.373901,313.478516 592.483826,313.084167 
	C590.072510,312.889709 589.986755,311.479126 590.020874,309.310181 
z"/>
<path fill="#ECB3B2" opacity="1.000000" stroke="none" 
	d="
M600.234131,569.516357 
	C610.480713,567.699097 620.697144,566.247314 631.337158,564.742737 
	C633.929871,566.443726 634.375427,568.668030 633.290710,571.615967 
	C628.121338,583.650330 620.177917,583.174133 611.184937,582.816040 
	C604.923035,582.566711 601.327942,578.899902 600.159607,572.397583 
	C600.068787,571.343567 600.136353,570.612732 600.234131,569.516357 
z"/>
<path fill="#0F0F0F" opacity="1.000000" stroke="none" 
	d="
M345.171570,501.612305 
	C347.142975,501.145569 349.057922,501.132751 351.385956,501.122864 
	C350.278107,507.050842 348.103119,512.742554 345.375671,518.507080 
	C345.100616,513.139648 345.107849,507.602905 345.171570,501.612305 
z"/>
<path fill="#FCFEFD" opacity="1.000000" stroke="none" 
	d="
M651.803223,127.458511 
	C660.850708,126.144547 669.709961,125.249382 678.962646,126.740402 
	C670.384949,161.501877 665.037170,196.690414 658.894226,231.720703 
	C658.246948,235.411789 656.823975,237.905121 653.478455,239.911896 
	C645.668274,244.596649 638.151367,249.770142 629.863708,255.170471 
	C636.571045,212.118530 643.775146,169.899078 651.803223,127.458511 
z"/>
<path fill="#0D7C5C" opacity="1.000000" stroke="none" 
	d="
M602.010315,272.438049 
	C599.600281,273.235748 597.204224,273.637085 594.400757,273.985352 
	C594.991272,260.666779 598.354370,247.855133 601.491699,235.002930 
	C604.877014,221.134521 609.230591,207.560699 614.108215,194.152588 
	C614.659119,192.638168 615.091614,190.999268 617.453064,189.076920 
	C612.184998,217.404480 607.104614,244.723099 602.010315,272.438049 
z"/>
<path fill="#FBFCFD" opacity="1.000000" stroke="none" 
	d="
M552.426819,214.720535 
	C552.301331,209.882080 552.503906,204.948120 552.854492,199.649780 
	C556.238770,196.550186 559.586243,194.148468 564.545776,195.787445 
	C566.523621,199.266403 568.157837,202.510574 569.879944,206.055496 
	C564.230164,209.112503 558.492493,211.868774 552.426819,214.720535 
z"/>
<path fill="#0D7C5C" opacity="1.000000" stroke="none" 
	d="
M676.771851,226.630219 
	C670.567444,229.300476 672.968811,224.106995 673.213562,222.716690 
	C674.528870,215.244324 676.109192,207.805191 678.633057,200.605530 
	C680.638977,194.883331 682.246948,189.005844 686.033936,183.950729 
	C684.672607,191.035568 683.238586,198.107437 681.971985,205.209167 
	C680.872559,211.373291 679.917847,217.564651 679.004761,223.759537 
	C678.810486,225.077911 678.225281,225.880783 676.771851,226.630219 
z"/>
<path fill="#F7C32A" opacity="1.000000" stroke="none" 
	d="
M562.797485,273.244965 
	C558.379578,275.195892 553.935791,277.342468 549.354370,279.984192 
	C549.338135,272.004730 549.672607,263.973267 550.055359,255.497482 
	C554.216248,261.051605 557.188721,267.841675 562.797485,273.244965 
z"/>
<path fill="#0D7C5C" opacity="1.000000" stroke="none" 
	d="
M617.747986,186.991302 
	C617.584900,187.101929 617.420715,187.047775 617.256592,186.993622 
	C617.420044,186.937912 617.583496,186.882217 617.747986,186.991302 
z"/>
<path fill="#865037" opacity="1.000000" stroke="none" 
	d="
M339.009094,152.712418 
	C339.552063,154.473236 339.901917,156.299881 339.819244,158.106750 
	C339.526459,164.507416 341.421326,169.914688 346.594269,173.936996 
	C349.472015,176.174591 349.559692,177.950882 346.042542,179.706314 
	C342.860291,181.294632 342.032074,184.277496 341.916748,187.668793 
	C341.629639,196.112595 339.410767,198.162872 330.986786,198.081863 
	C328.656891,198.059464 326.382416,197.778366 324.077179,197.278442 
	C318.189941,196.001755 316.351501,197.572800 315.898529,204.219757 
	C311.980621,204.189117 308.961792,202.031647 305.991821,199.198792 
	C305.920105,198.049881 305.964905,197.260391 306.122253,196.089966 
	C307.307098,194.773529 308.682251,194.841644 309.959198,194.589371 
	C314.729675,193.646866 318.183533,190.977341 319.405640,186.259552 
	C320.690979,181.297577 319.090271,177.162476 314.559021,174.396149 
	C314.137512,174.138824 313.775604,173.796982 313.221558,173.148270 
	C314.259918,169.097168 315.819366,165.397629 316.692017,161.542618 
	C317.612091,157.477982 320.153687,155.641174 323.872009,155.007080 
	C328.771942,154.171524 333.701019,153.507156 339.009094,152.712418 
z"/>
<path fill="#FCF8F5" opacity="1.000000" stroke="none" 
	d="
M305.614136,199.072906 
	C308.985077,200.686218 312.094788,202.533081 315.540527,204.525406 
	C320.007874,208.528000 324.281799,212.260345 326.994080,217.719025 
	C316.973206,216.321838 307.176575,213.292236 296.512939,212.581314 
	C299.940247,208.650284 303.888977,204.851212 305.614136,199.072906 
z"/>
<path fill="#F18A01" opacity="1.000000" stroke="none" 
	d="
M312.838531,173.134903 
	C318.302551,174.378769 320.956207,177.812103 321.048737,183.275543 
	C321.143372,188.859741 318.067383,193.276947 312.920380,195.103271 
	C310.990570,195.788040 309.051483,195.996246 306.637817,195.735199 
	C305.984589,194.372726 305.734314,193.036407 305.435516,191.289948 
	C306.104584,190.065369 307.095673,189.860840 308.083679,189.838684 
	C311.565979,189.760605 314.221680,188.467880 315.282471,184.933151 
	C316.350769,181.373413 313.893463,179.441818 311.492981,177.132339 
	C311.786987,175.678085 312.230774,174.541412 312.838531,173.134903 
z"/>
<path fill="#844F37" opacity="1.000000" stroke="none" 
	d="
M311.038879,177.011932 
	C315.781647,177.343140 317.187561,180.515335 316.871582,184.224640 
	C316.532806,188.201630 314.206390,190.958923 309.803009,191.149185 
	C308.649567,191.199020 307.487701,191.052917 305.858337,190.938293 
	C303.578979,188.009796 303.785400,185.577942 306.396698,183.107559 
	C308.141296,181.457092 309.308838,179.196609 311.038879,177.011932 
z"/>
<path fill="#A73800" opacity="1.000000" stroke="none" 
	d="
M228.880157,275.325317 
	C227.584030,283.930969 228.134903,292.411011 227.892700,301.298523 
	C226.223618,301.771118 224.601822,301.804138 222.581757,301.776733 
	C222.644882,292.567413 225.855850,283.912140 226.988724,274.468262 
	C227.561203,274.404968 228.145538,274.759338 228.880157,275.325317 
z"/>
<path fill="#ECB4B5" opacity="1.000000" stroke="none" 
	d="
M564.861389,195.651031 
	C560.606384,194.996918 557.590332,198.515488 553.382812,199.205048 
	C552.666931,191.408234 553.169800,183.562485 553.984741,175.290283 
	C560.066711,180.400772 562.626282,187.747528 564.861389,195.651031 
z"/>
<path fill="#FCF8F5" opacity="1.000000" stroke="none" 
	d="
M327.670441,218.613174 
	C327.453094,218.681564 327.143707,218.571777 326.883301,218.215179 
	C327.183441,218.074371 327.398834,218.229919 327.670441,218.613174 
z"/>
<path fill="#844F37" opacity="1.000000" stroke="none" 
	d="
M322.962250,552.661865 
	C323.073730,556.203247 323.362518,559.425049 321.639038,562.798462 
	C314.589539,551.951904 304.193024,551.856873 296.963470,562.944519 
	C296.424591,563.770996 295.855347,564.577698 295.150085,565.696777 
	C292.858856,566.083923 293.512115,565.022827 294.080597,563.878540 
	C295.925476,560.164734 297.773407,556.450867 299.526489,552.693359 
	C301.848724,547.715820 305.586090,545.024841 311.179901,544.874817 
	C316.820282,544.723572 320.702942,547.146545 322.962250,552.661865 
z"/>
<path fill="#6F3F2B" opacity="1.000000" stroke="none" 
	d="
M290.758240,571.102417 
	C290.826721,571.312500 290.662476,571.621460 290.233337,571.978149 
	C290.154144,571.750916 290.339844,571.476135 290.758240,571.102417 
z"/>
<path fill="#FFFFFF" opacity="1.000000" stroke="none" 
	d="
M652.940369,573.562378 
	C653.999023,576.312378 655.841736,574.844116 657.589233,574.981689 
	C657.981262,576.015076 657.991760,577.065613 657.995789,578.510376 
	C655.250610,579.992981 653.866333,581.915833 652.828796,584.812988 
	C650.863892,590.299377 648.233887,595.600830 642.493042,598.862183 
	C641.827454,598.568420 641.460388,598.122498 640.962952,597.411377 
	C641.584778,589.355591 640.507385,581.875793 637.065308,574.423218 
	C642.136047,571.418640 647.353577,572.344788 652.940369,573.562378 
z"/>
<path fill="#F7C128" opacity="1.000000" stroke="none" 
	d="
M653.419434,573.488037 
	C648.212158,573.909424 643.114685,573.964966 637.556458,574.031860 
	C635.959595,573.386719 634.823547,572.730103 633.359985,572.032898 
	C632.671509,569.827820 632.310547,567.663330 631.855164,565.094421 
	C636.854187,528.723511 632.213257,493.369965 624.373596,458.351440 
	C622.866699,451.620178 626.698792,448.372040 629.734375,442.839325 
	C630.878540,455.393646 632.094727,466.836914 633.784973,478.230988 
	C638.394226,509.301849 644.449036,540.054321 653.104187,570.269287 
	C653.368958,571.193481 654.056641,572.073120 653.419434,573.488037 
z"/>
<path fill="#DF4C00" opacity="1.000000" stroke="none" 
	d="
M244.492249,380.617126 
	C244.090897,373.899506 244.046661,367.477631 244.005920,360.604034 
	C273.028168,360.129028 302.046936,360.105774 331.533081,360.116272 
	C334.715210,365.007202 333.521606,370.101257 332.691406,375.583527 
	C330.748108,377.858459 328.394806,378.162170 326.097656,378.517273 
	C311.773132,380.731567 297.391144,382.033417 282.887878,382.746094 
	C272.537415,383.254669 262.292664,382.185944 251.997849,382.479706 
	C249.529984,382.550171 246.953934,382.692505 244.492249,380.617126 
z"/>
<path fill="#BE6A00" opacity="1.000000" stroke="none" 
	d="
M331.693542,376.409790 
	C332.001556,371.026764 332.005371,366.038727 332.004822,360.600372 
	C336.029205,360.128021 340.057953,360.105988 344.549225,360.118958 
	C347.422211,364.103821 346.841919,368.200409 345.343384,372.737000 
	C345.101624,399.407684 345.125732,425.670410 345.201874,452.388397 
	C341.099701,452.890533 336.945526,452.937378 332.317993,452.941833 
	C330.172760,450.945312 330.414032,448.551178 330.409576,446.258148 
	C330.368774,425.209747 330.376007,404.161255 330.401947,383.112793 
	C330.404602,380.969116 330.268860,378.782898 331.693542,376.409790 
z"/>
<path fill="#A73800" opacity="1.000000" stroke="none" 
	d="
M318.580109,301.796082 
	C318.072418,287.774628 317.062469,273.783173 319.608826,259.793243 
	C320.264954,260.071472 320.736572,260.181152 320.734985,260.283539 
	C320.522064,274.029449 322.672424,287.527283 324.941650,301.417236 
	C322.939972,301.838470 320.966980,301.852539 318.580109,301.796082 
z"/>
<path fill="#DF4C00" opacity="1.000000" stroke="none" 
	d="
M345.451477,373.054077 
	C345.052979,369.112885 345.028473,365.080750 345.007874,360.601318 
	C346.747437,360.114471 348.483124,360.074982 350.657410,360.029694 
	C352.268768,363.316620 353.441437,366.609314 354.730225,370.197754 
	C351.839386,371.316742 348.832428,372.139954 345.451477,373.054077 
z"/>
<path fill="#010100" opacity="1.000000" stroke="none" 
	d="
M331.589294,376.034485 
	C332.012360,401.340942 332.026978,426.667114 331.943176,452.446350 
	C302.938354,452.894043 274.032013,452.888672 244.672272,452.866638 
	C244.178131,428.970459 244.137405,405.090973 244.115906,380.766418 
	C253.512207,381.570984 262.973755,381.545776 272.379395,381.528015 
	C292.119812,381.490753 311.759735,379.803375 331.589294,376.034485 
z"/>
<path fill="#E48402" opacity="1.000000" stroke="none" 
	d="
M478.651672,186.220215 
	C477.572174,185.137024 476.856567,184.056763 476.089355,182.722961 
	C476.082550,177.794266 475.525665,172.926712 480.468384,169.458603 
	C481.816528,172.507858 479.831177,175.600037 480.284668,178.824631 
	C482.351746,175.498550 481.167297,171.517288 482.159668,167.601517 
	C481.530548,166.533417 480.888702,165.821701 481.715759,164.844788 
	C482.495819,163.923477 483.301910,164.130875 484.404236,164.886688 
	C487.537872,171.506866 485.676025,177.566818 482.869537,183.493378 
	C482.142822,185.028061 480.858643,186.102310 478.651672,186.220215 
z"/>
<path fill="#E48402" opacity="1.000000" stroke="none" 
	d="
M439.669098,181.358154 
	C437.915497,182.753372 437.237701,185.051270 434.619751,185.251053 
	C429.422058,180.767670 431.977203,175.492233 432.803162,170.436890 
	C433.211334,167.938660 434.510956,165.792221 436.401672,163.604889 
	C439.449005,162.977524 439.650726,164.131500 438.105957,166.466354 
	C437.428833,170.914124 435.044098,174.723160 435.522583,179.377960 
	C437.070374,176.028107 437.125549,172.523758 438.785950,169.203354 
	C442.770142,172.766220 440.352051,176.922745 439.669098,181.358154 
z"/>
<path fill="#0F0F0F" opacity="1.000000" stroke="none" 
	d="
M450.575500,254.104248 
	C450.439880,254.924744 450.353882,255.429398 450.118805,255.850937 
	C448.768860,258.271637 446.704895,259.397736 443.996979,258.652679 
	C442.319214,258.191040 441.100189,256.906860 441.255035,255.034332 
	C441.432648,252.887100 442.723419,251.438858 444.836060,250.852631 
	C447.603333,250.084732 449.690369,250.729935 450.575500,254.104248 
z"/>
<path fill="#0F0F0F" opacity="1.000000" stroke="none" 
	d="
M410.365540,254.768311 
	C410.010437,255.696838 409.862183,256.398804 409.440613,256.839020 
	C407.741974,258.612701 405.763275,259.608917 403.308533,258.379852 
	C401.678070,257.563507 400.804962,256.216827 401.267822,254.372864 
	C401.856323,252.028366 403.588715,250.802277 405.884003,250.601089 
	C408.547913,250.367569 410.319458,251.484650 410.365540,254.768311 
z"/>
<path fill="#0F0F0F" opacity="1.000000" stroke="none" 
	d="
M422.137329,257.602234 
	C421.691803,258.772125 421.000519,259.025208 420.019257,259.154602 
	C417.059509,258.711426 414.033020,258.224091 414.821198,254.141022 
	C415.213623,252.108231 416.729492,251.124817 418.652161,250.701797 
	C420.622528,250.268295 422.333984,250.708099 423.410065,252.492889 
	C424.568634,254.414520 423.795959,255.971420 422.137329,257.602234 
z"/>
<path fill="#0F0F0F" opacity="1.000000" stroke="none" 
	d="
M459.651367,258.803925 
	C456.845459,258.883514 454.982544,258.093048 454.772217,255.356522 
	C454.613342,253.290131 455.727997,251.826843 457.549255,251.068771 
	C459.911987,250.085281 462.415771,250.129562 463.551361,252.715973 
	C464.970642,255.948471 462.611481,257.534027 459.651367,258.803925 
z"/>
<path fill="#0F0F0F" opacity="1.000000" stroke="none" 
	d="
M436.892242,255.649551 
	C434.121552,256.319550 431.490662,256.614532 428.460938,256.932068 
	C427.419006,253.072128 429.217255,250.824554 432.974060,250.603577 
	C435.908478,250.431000 437.572906,252.070465 436.892242,255.649551 
z"/>
<path fill="#0F0F0F" opacity="1.000000" stroke="none" 
	d="
M426.640930,304.918091 
	C423.781067,302.764099 423.902069,300.525024 426.053070,298.449585 
	C427.563843,296.991882 429.525787,296.458008 431.571747,297.423676 
	C433.018036,298.106262 434.053223,299.275055 433.793610,300.954620 
	C433.462189,303.098938 432.122223,304.567902 429.969452,305.032227 
	C429.025574,305.235748 427.997803,305.050232 426.640930,304.918091 
z"/>
<path fill="#0F0F0F" opacity="1.000000" stroke="none" 
	d="
M459.176758,303.615875 
	C456.890198,305.488251 454.712646,305.831360 452.524872,304.345886 
	C451.363007,303.557037 450.789856,302.271210 451.228424,300.848785 
	C451.865723,298.781799 453.341034,297.489014 455.459015,297.082977 
	C459.216522,296.362610 460.790009,298.869263 459.176758,303.615875 
z"/>
<path fill="#0F0F0F" opacity="1.000000" stroke="none" 
	d="
M447.066711,300.927612 
	C446.874512,301.793060 446.780670,302.303040 446.522278,302.707947 
	C444.952667,305.167877 442.633209,305.700745 440.026703,304.887726 
	C438.445282,304.394440 437.727203,303.052155 437.893280,301.371887 
	C438.142578,298.849945 439.822327,297.524414 442.080475,297.126495 
	C444.676361,296.669037 446.659058,297.565979 447.066711,300.927612 
z"/>
<path fill="#6F3F2B" opacity="1.000000" stroke="none" 
	d="
M447.037354,182.352554 
	C453.130005,185.200745 459.380920,186.512924 466.512878,182.668304 
	C461.147614,189.622513 450.318359,189.148895 447.037354,182.352554 
z"/>
<path fill="#0F0F0F" opacity="1.000000" stroke="none" 
	d="
M438.958832,168.671661 
	C438.607880,173.388382 438.191956,177.807739 435.004181,182.381119 
	C433.653961,176.432312 434.841583,171.710693 437.616241,166.950638 
	C438.238739,167.284592 438.552521,167.825455 438.958832,168.671661 
z"/>
<path fill="#0F0F0F" opacity="1.000000" stroke="none" 
	d="
M482.044617,167.445786 
	C484.404785,172.742737 482.412994,177.549789 479.824066,182.284531 
	C478.367737,178.122421 479.141571,174.117798 480.625977,169.676819 
	C481.196869,168.685516 481.576355,168.160080 482.044617,167.445786 
z"/>
<path fill="#6F3F2B" opacity="1.000000" stroke="none" 
	d="
M446.985229,182.011307 
	C446.851410,181.864838 446.731262,181.707016 446.611115,181.549194 
	C446.706543,181.595734 446.801971,181.642258 446.959503,181.830750 
	C447.021606,181.972717 446.998932,181.999969 446.985229,182.011307 
z"/>
</svg>